<?xml version="1.0" encoding="UTF-8" standalone="no"?>
<svg xmlns="http://www.w3.org/2000/svg" version="1.2" baseProfile="tiny" viewBox="0.00 0.00 650.00 349.00">
<path fill="#ffffff" d="
  M 299.58 36.38
  C 297.86 36.92 296.31 35.58 295.13 34.52
  C 294.24 33.72 294.08 32.89 294.65 32.03
  C 295.04 31.45 295.69 31.09 296.60 30.96
  C 301.21 30.28 305.76 29.54 310.26 28.75
  C 319.37 27.14 328.03 25.63 336.26 24.21
  C 342.97 23.05 351.82 21.94 359.28 20.56
  C 366.75 19.17 374.60 17.84 382.27 16.53
  C 389.94 15.22 397.73 13.97 405.64 12.78
  C 412.85 11.70 420.03 10.50 427.20 9.19
  C 439.01 7.02 450.21 5.43 462.17 3.24
  C 467.87 2.19 473.40 1.30 478.76 0.57
  C 481.59 0.18 483.40 0.68 485.76 2.18
  C 497.25 9.47 508.83 16.54 520.19 23.95
  C 523.88 26.35 527.45 28.59 530.91 30.66
  C 544.11 38.58 557.11 47.01 569.96 55.01
  C 574.61 57.90 579.49 61.05 584.60 64.47
  C 591.58 69.14 599.71 73.25 606.97 78.26
  C 610.70 80.83 614.49 83.20 618.35 85.39
  C 619.96 86.30 621.56 87.31 623.15 88.43
  C 625.87 90.35 629.48 91.44 631.19 94.53
  C 631.36 94.85 631.41 95.18 631.33 95.53
  C 631.12 96.43 630.74 97.24 630.17 97.95
  C 629.43 98.88 628.04 98.93 627.23 98.07
  C 626.26 97.03 625.16 96.21 623.91 95.62
  C 621.84 94.64 619.87 93.51 618.00 92.22
  C 615.69 90.63 613.00 88.89 609.94 87.00
  C 579.33 68.01 546.89 47.70 512.63 26.09
  C 503.11 20.09 493.89 13.85 484.27 8.13
  C 482.14 6.86 480.84 6.18 478.16 6.58
  C 474.19 7.16 470.23 7.79 466.26 8.46
  C 432.96 14.09 398.89 19.81 364.04 25.62
  C 347.56 28.37 330.99 31.16 314.33 33.99
  C 311.59 34.46 309.19 34.78 307.13 34.95
  C 304.36 35.18 301.85 35.66 299.58 36.38
  Z"
/>
<path fill="#ffffff" d="
  M 305.03 52.21
  C 304.39 50.78 304.10 48.19 305.92 47.36
  C 308.33 46.26 310.56 46.39 313.02 45.87
  C 321.29 44.12 329.71 42.90 337.48 41.46
  C 353.69 38.47 369.49 35.63 384.90 32.94
  C 391.73 31.75 398.29 30.57 404.58 29.38
  C 419.17 26.63 435.09 23.77 452.36 20.82
  C 461.32 19.29 470.39 17.57 479.56 15.67
  C 481.00 15.37 482.50 15.64 483.75 16.42
  C 513.45 34.88 543.34 53.41 573.42 72.02
  C 589.05 81.69 600.95 89.18 609.11 94.47
  C 610.08 95.09 611.24 95.32 612.07 95.91
  C 615.68 98.49 619.47 100.78 623.43 102.78
  C 624.82 103.48 625.58 104.55 625.71 106.00
  C 625.74 106.34 625.65 106.64 625.43 106.89
  C 624.25 108.24 622.80 108.80 621.08 108.57
  C 618.33 108.20 615.52 107.64 612.66 106.89
  C 611.69 106.64 610.74 106.54 609.79 106.59
  C 608.38 106.66 607.51 105.86 606.13 105.93
  C 605.20 105.98 604.27 105.92 603.34 105.76
  C 602.04 105.53 601.07 104.61 599.76 104.70
  C 599.28 104.73 598.80 104.71 598.33 104.62
  C 592.96 103.57 587.52 102.53 582.00 101.49
  C 580.46 101.20 578.94 100.99 577.45 100.88
  C 575.86 100.76 574.36 100.56 572.93 100.28
  C 569.73 99.64 566.46 99.08 563.12 98.59
  C 562.26 98.46 561.65 98.19 560.74 98.03
  C 552.09 96.49 543.43 94.94 534.76 93.37
  C 521.04 90.90 506.30 88.21 490.55 85.32
  C 480.88 83.54 471.45 81.92 462.24 80.46
  C 455.02 79.31 448.47 78.17 442.58 77.04
  C 430.76 74.76 418.81 72.63 406.73 70.65
  C 397.46 69.12 388.27 67.24 379.05 65.71
  C 368.07 63.89 346.80 60.15 315.23 54.48
  C 314.56 54.37 313.91 54.19 313.28 53.94
  C 312.21 53.53 311.07 53.91 309.93 53.59
  C 308.61 53.21 307.25 52.95 305.86 52.81
  C 305.47 52.77 305.20 52.57 305.03 52.21
  Z
  M 382.62 39.30
  C 367.55 41.97 351.76 44.79 335.25 47.75
  C 332.72 48.20 330.35 48.83 328.14 49.63
  C 327.85 49.74 327.85 50.14 328.14 50.25
  C 334.91 52.78 341.82 54.10 348.87 54.21
  C 352.10 54.26 358.06 53.41 366.73 51.66
  C 391.30 46.69 417.45 41.59 445.17 36.38
  C 454.80 34.57 464.35 32.38 474.39 30.62
  C 479.36 29.75 482.37 31.92 486.34 34.39
  C 516.93 53.48 548.91 73.26 582.26 93.73
  C 584.55 95.13 586.58 96.94 589.35 97.09
  C 591.10 97.18 592.81 97.69 594.50 98.61
  C 594.80 98.78 595.12 98.81 595.45 98.72
  C 597.66 98.07 598.96 99.27 601.14 99.05
  C 601.47 99.02 601.75 99.13 601.98 99.39
  C 602.44 99.92 603.30 99.68 603.42 98.99
  C 603.55 98.22 603.35 97.66 602.80 97.31
  C 592.84 91.04 582.86 84.77 572.87 78.52
  C 565.09 73.65 557.79 69.14 550.98 64.99
  C 533.27 54.20 512.19 41.07 487.72 25.62
  C 486.24 24.69 484.23 23.64 481.68 22.47
  C 480.26 21.82 479.23 21.94 477.75 22.15
  C 472.38 22.91 467.05 23.79 461.76 24.78
  C 433.30 30.13 406.92 34.97 382.62 39.30
  Z"
/>
<path fill="#ffffff" d="
  M 0.00 151.61
  L 0.00 149.70
  C 7.70 145.92 15.76 142.48 24.17 139.37
  C 25.65 138.82 26.90 137.94 28.36 137.43
  C 33.31 135.70 38.14 133.70 42.86 131.41
  C 44.99 130.37 47.26 130.14 49.33 129.10
  C 52.11 127.71 55.06 126.99 57.81 125.74
  C 61.37 124.13 65.12 122.55 69.05 120.99
  C 73.09 119.39 76.86 117.85 80.35 116.36
  C 83.36 115.09 86.39 113.87 89.44 112.71
  C 92.57 111.52 95.60 110.30 98.53 109.06
  C 107.02 105.45 115.56 101.97 124.15 98.62
  C 125.82 97.97 127.49 97.29 129.16 96.59
  C 131.39 95.66 133.67 94.95 135.89 93.98
  C 142.83 90.96 151.05 87.54 160.56 83.71
  C 161.45 83.35 162.37 82.99 163.31 82.62
  C 170.52 79.83 177.91 76.61 185.21 73.72
  C 202.13 67.01 217.80 60.68 232.22 54.71
  C 241.14 51.02 248.95 47.80 255.66 45.05
  C 257.05 44.48 258.42 43.91 259.78 43.32
  C 261.73 42.48 263.85 41.90 265.79 41.11
  C 271.26 38.88 276.77 36.60 282.32 34.27
  C 282.61 34.15 282.90 34.14 283.19 34.24
  L 285.68 35.07
  C 286.05 35.20 286.33 35.42 286.54 35.75
  C 287.17 36.77 287.32 38.06 286.99 39.61
  C 286.75 40.76 286.08 41.53 284.97 41.94
  C 282.98 42.67 281.14 43.52 279.45 44.49
  C 279.16 44.66 278.85 44.74 278.51 44.73
  C 278.22 44.72 277.97 44.78 277.75 44.90
  C 276.15 45.79 274.46 46.52 272.68 47.07
  C 267.54 48.69 262.70 51.08 257.72 52.87
  C 255.68 53.61 253.71 54.42 251.80 55.31
  C 250.06 56.12 248.31 56.81 246.56 57.40
  C 244.13 58.21 241.94 59.29 239.54 60.19
  C 232.55 62.81 225.63 65.59 218.79 68.54
  C 213.57 70.79 208.30 72.20 203.25 74.47
  C 200.78 75.58 198.27 76.60 195.72 77.53
  C 193.17 78.45 190.64 79.42 188.14 80.44
  C 179.62 83.91 171.16 87.30 162.76 90.59
  C 162.33 90.76 161.91 90.92 161.48 91.09
  C 157.71 92.60 153.74 94.13 149.59 95.70
  C 148.52 96.11 147.38 96.63 146.17 97.26
  C 143.93 98.43 141.55 98.99 139.37 100.13
  C 137.94 100.87 136.44 100.96 134.91 101.57
  C 131.47 102.95 127.67 104.94 124.17 105.81
  C 122.48 106.23 121.80 107.31 120.20 107.88
  C 118.42 108.52 116.55 109.12 114.60 109.69
  C 113.85 109.90 113.15 110.20 112.50 110.58
  C 111.51 111.15 110.56 110.92 109.51 111.51
  C 107.50 112.63 105.49 113.49 103.48 114.10
  C 101.25 114.78 99.23 115.56 97.43 116.43
  C 95.82 117.21 94.09 117.93 92.24 118.58
  C 90.44 119.21 88.65 119.89 86.88 120.64
  C 81.88 122.74 77.02 124.72 72.29 126.57
  C 63.57 129.98 54.57 133.49 45.28 137.09
  C 43.79 137.67 42.17 138.42 40.44 139.35
  C 38.30 140.51 35.85 140.78 33.57 141.79
  C 30.62 143.09 27.77 144.28 25.04 145.35
  C 18.65 147.87 11.93 150.55 4.86 153.39
  C 2.72 154.25 1.10 153.66 0.00 151.61
  Z"
/>
<path fill="#ffffff" d="
  M 98.99 127.96
  C 98.66 128.32 98.27 128.56 97.80 128.69
  C 93.00 129.96 88.41 131.51 84.04 133.35
  C 82.85 133.85 81.82 133.89 80.68 134.44
  C 78.01 135.72 75.35 136.80 72.70 137.69
  C 70.07 138.56 67.47 139.49 64.88 140.47
  C 55.56 144.00 46.30 147.41 37.09 150.68
  C 36.34 150.95 35.60 151.26 34.87 151.63
  C 34.06 152.04 33.25 152.40 32.43 152.73
  C 27.92 154.51 23.50 156.16 19.17 157.68
  C 17.56 158.24 15.94 158.75 14.33 159.21
  C 12.59 159.70 10.92 160.24 9.31 160.83
  C 8.57 161.10 7.75 160.76 7.42 160.06
  C 7.19 159.59 6.89 159.18 6.51 158.83
  C 6.26 158.59 6.26 158.35 6.51 158.10
  C 6.86 157.77 7.04 157.35 7.06 156.86
  C 7.08 156.45 7.28 156.17 7.65 156.01
  C 11.68 154.28 15.99 152.53 20.58 150.78
  C 27.47 148.15 34.14 145.66 40.58 143.29
  C 44.39 141.89 48.05 140.41 51.55 138.86
  C 52.95 138.24 54.52 137.88 56.00 137.30
  C 61.61 135.13 67.36 132.85 73.25 130.44
  C 74.32 130.00 75.32 130.02 76.39 129.59
  C 88.21 124.90 99.75 120.51 111.00 116.41
  C 113.06 115.66 114.98 114.63 117.06 113.93
  C 121.38 112.47 125.67 110.83 129.94 109.01
  C 131.53 108.34 133.10 107.77 134.65 107.30
  C 136.86 106.64 138.66 105.48 140.81 104.72
  C 149.84 101.51 158.83 98.17 167.76 94.70
  C 169.79 93.91 171.81 93.14 173.83 92.39
  C 176.55 91.38 179.11 90.08 181.89 89.16
  C 188.66 86.92 195.13 83.98 201.85 81.57
  C 205.49 80.26 209.03 78.65 212.68 77.35
  C 215.18 76.46 217.81 75.44 220.56 74.27
  C 222.35 73.52 224.11 72.86 225.84 72.31
  C 227.71 71.72 229.47 71.08 231.10 70.39
  C 233.35 69.45 235.71 68.55 238.18 67.68
  C 240.50 66.87 242.86 66.00 245.26 65.05
  C 250.99 62.79 256.32 60.77 261.25 59.00
  C 263.14 58.33 265.08 57.56 267.08 56.69
  C 269.57 55.62 272.17 55.04 274.68 53.98
  C 280.44 51.57 286.07 49.34 291.58 47.30
  C 291.90 47.18 292.20 47.22 292.48 47.41
  C 293.91 48.41 295.66 49.74 295.59 51.70
  C 295.53 53.10 295.02 54.60 293.65 55.19
  C 290.50 56.54 287.21 57.82 283.78 59.03
  C 279.45 60.57 275.31 62.10 271.36 63.61
  C 268.06 64.87 264.79 66.16 261.56 67.47
  C 258.29 68.80 254.98 70.00 251.62 71.07
  C 250.88 71.30 250.17 71.62 249.49 72.02
  C 248.60 72.53 247.46 72.55 246.43 72.89
  C 242.79 74.12 238.84 75.62 234.57 77.41
  C 234.02 77.64 233.46 77.85 232.91 78.05
  C 226.04 80.48 220.30 82.64 215.70 84.54
  C 212.63 85.82 209.65 86.63 206.65 87.78
  C 199.48 90.53 192.27 93.19 185.03 95.77
  C 184.14 96.09 181.83 97.00 178.09 98.51
  C 176.46 99.16 174.90 99.73 173.39 100.21
  C 171.86 100.70 170.28 101.22 168.66 101.78
  C 164.35 103.27 159.87 104.94 155.24 106.79
  C 149.39 109.12 144.45 110.99 140.43 112.40
  C 135.45 114.15 130.53 115.99 125.67 117.90
  C 117.06 121.28 108.30 124.55 99.39 127.70
  C 99.24 127.75 99.10 127.84 98.99 127.96
  Z"
/>
<path fill="#ffffff" d="
  M 164.41 114.10
  C 164.43 114.17 164.47 114.19 164.53 114.18
  L 164.54 114.18
  C 164.66 114.16 164.71 114.09 164.69 113.96
  C 164.50 112.69 164.82 111.72 165.64 111.03
  C 165.90 110.82 166.01 110.54 165.98 110.21
  C 165.70 107.01 168.22 106.68 170.40 105.64
  C 170.92 105.39 171.54 105.58 171.84 106.06
  C 172.68 107.41 173.33 108.80 173.80 110.23
  C 173.97 110.77 174.12 110.76 174.25 110.21
  L 175.45 104.93
  C 175.63 104.17 176.17 103.54 176.90 103.26
  L 180.24 101.99
  C 180.71 101.81 181.01 101.96 181.12 102.45
  C 181.27 103.08 181.93 103.39 183.12 103.37
  C 183.87 103.36 184.54 102.88 184.79 102.18
  L 185.15 101.16
  C 185.28 100.77 185.53 100.49 185.90 100.30
  C 187.13 99.66 188.37 99.22 189.63 98.97
  C 190.53 98.79 191.11 99.14 191.37 100.03
  L 192.20 102.83
  C 192.33 103.26 192.60 103.40 193.02 103.23
  C 193.43 103.06 193.65 102.76 193.69 102.33
  C 193.90 100.13 194.44 98.29 195.33 96.82
  C 195.56 96.46 195.95 96.23 196.38 96.21
  C 197.38 96.16 198.24 95.84 198.96 95.23
  C 199.58 94.72 200.52 94.99 200.77 95.75
  L 202.08 99.73
  C 202.47 100.92 202.78 100.90 202.99 99.67
  C 203.13 98.88 203.40 98.10 203.79 97.33
  C 203.97 96.99 204.05 96.63 204.03 96.25
  C 203.85 92.67 207.13 92.82 209.23 91.47
  C 209.57 91.26 209.85 91.32 210.06 91.66
  C 211.09 93.30 211.79 95.05 212.16 96.90
  C 212.28 97.52 212.46 97.54 212.69 96.95
  C 213.41 95.12 213.88 93.30 214.10 91.49
  C 214.24 90.35 215.05 89.41 216.16 89.10
  C 216.99 88.87 217.79 88.53 218.56 88.07
  C 219.58 87.47 220.88 87.99 221.22 89.12
  L 222.70 94.19
  C 222.74 94.33 222.79 94.33 222.86 94.20
  C 223.08 93.73 223.22 93.26 223.29 92.79
  C 223.54 91.04 223.97 89.48 224.33 87.79
  C 224.87 85.21 227.43 85.16 229.40 84.22
  C 230.47 83.71 231.72 84.42 231.83 85.60
  C 231.95 86.87 232.30 88.10 232.88 89.29
  C 233.13 89.80 233.32 89.78 233.46 89.23
  C 234.09 86.66 234.25 83.90 235.99 81.77
  C 236.24 81.46 236.60 81.27 237.00 81.23
  C 238.12 81.11 239.15 80.75 240.09 80.16
  C 240.69 79.78 241.49 80.09 241.68 80.77
  L 243.32 86.44
  C 243.45 86.88 243.61 86.89 243.81 86.48
  C 244.44 85.19 244.84 83.92 245.02 82.66
  C 245.25 81.09 245.96 80.02 246.23 78.46
  C 246.29 78.12 246.49 77.89 246.82 77.77
  L 250.96 76.32
  C 251.87 76.00 252.83 76.61 252.93 77.57
  C 253.05 78.76 253.54 79.79 254.40 80.67
  C 254.62 80.89 254.79 80.86 254.91 80.57
  L 256.43 77.03
  C 256.56 76.72 256.64 76.39 256.65 76.06
  C 256.74 73.79 260.62 72.64 262.43 72.02
  C 263.08 71.79 263.78 72.22 263.88 72.90
  C 264.12 74.57 264.70 76.33 265.63 78.19
  C 265.88 78.69 266.03 78.66 266.07 78.10
  C 266.13 77.21 266.39 76.41 266.86 75.70
  C 267.04 75.42 267.12 75.08 267.08 74.74
  C 266.85 72.88 267.38 71.37 268.66 70.21
  C 269.30 69.64 270.01 69.26 270.80 69.07
  C 271.56 68.89 272.32 68.56 273.08 68.07
  C 273.70 67.67 274.53 67.94 274.79 68.63
  L 276.94 74.33
  C 277.17 74.94 277.29 74.92 277.30 74.27
  L 277.33 72.58
  C 277.34 72.22 277.46 71.91 277.69 71.64
  C 278.41 70.84 278.85 70.39 278.98 69.24
  C 279.10 68.21 279.43 67.20 279.98 66.21
  C 280.14 65.92 280.38 65.71 280.69 65.59
  C 282.06 65.04 283.47 64.50 284.90 63.97
  C 286.27 63.47 287.69 63.00 289.16 62.57
  C 290.97 62.03 292.66 61.33 294.25 60.48
  C 295.12 60.01 295.60 60.27 295.69 61.26
  C 296.03 65.31 296.38 70.11 294.49 73.90
  C 291.28 80.36 286.00 82.08 278.40 84.71
  C 272.60 86.71 267.12 88.28 261.31 90.44
  C 259.04 91.29 256.79 92.04 254.56 92.69
  C 251.79 93.50 249.26 94.71 246.44 95.42
  C 243.55 96.15 240.96 97.70 238.01 98.21
  C 236.38 98.50 234.90 99.44 233.28 99.93
  C 227.11 101.80 221.25 103.79 215.71 105.91
  C 215.18 106.11 214.63 106.25 214.07 106.33
  C 213.66 106.39 213.27 106.48 212.91 106.61
  C 207.56 108.48 202.01 110.42 196.26 112.41
  C 195.32 112.73 194.41 113.08 193.54 113.46
  C 191.86 114.19 190.16 114.34 188.49 114.90
  C 181.48 117.25 174.45 119.70 167.38 122.25
  C 165.23 123.02 162.92 123.34 160.82 124.20
  C 156.14 126.11 151.21 127.84 146.03 129.38
  C 140.16 131.13 134.90 132.86 130.25 134.55
  C 125.68 136.21 120.92 137.88 115.97 139.57
  C 112.82 140.64 109.81 141.91 106.57 142.74
  C 104.37 143.31 102.27 144.22 100.11 144.91
  C 96.13 146.18 92.31 147.42 88.65 148.64
  C 88.32 148.75 88.10 148.96 87.97 149.28
  C 87.86 149.57 87.64 149.67 87.32 149.58
  C 87.00 149.49 86.69 149.52 86.40 149.67
  C 84.14 150.82 81.89 150.72 79.61 151.62
  C 75.60 153.20 71.53 154.63 67.38 155.92
  C 65.80 156.41 64.18 156.99 62.52 157.66
  C 61.13 158.22 59.64 158.74 58.05 159.21
  C 49.07 161.88 38.17 165.54 25.35 170.19
  C 25.14 170.27 24.95 170.38 24.80 170.52
  C 24.59 170.71 24.34 170.83 24.07 170.90
  C 21.69 171.47 19.33 172.12 17.00 172.86
  C 11.79 174.51 12.07 166.39 12.84 163.49
  C 12.96 163.04 13.30 162.69 13.75 162.57
  L 17.28 161.60
  C 17.59 161.52 17.91 161.63 18.10 161.89
  C 18.58 162.60 18.87 163.36 18.97 164.17
  C 18.99 164.34 19.08 164.42 19.25 164.41
  L 19.50 164.40
  C 19.54 164.40 19.56 164.38 19.56 164.33
  C 19.42 161.44 20.69 159.70 23.37 159.13
  C 23.72 159.05 24.05 159.11 24.35 159.31
  C 25.12 159.82 25.41 160.61 25.22 161.67
  C 25.22 161.69 25.23 161.70 25.24 161.70
  L 25.50 161.75
  C 25.65 161.78 25.75 161.72 25.78 161.57
  C 26.23 159.77 27.36 158.24 29.17 156.99
  C 29.87 156.50 30.85 156.92 30.97 157.77
  L 31.08 158.53
  C 31.13 158.87 31.32 159.10 31.64 159.22
  C 32.05 159.37 32.41 159.33 32.72 159.11
  C 32.95 158.94 33.06 158.71 33.03 158.42
  C 32.87 156.85 33.66 155.68 35.39 154.92
  C 36.00 154.65 36.71 154.68 37.30 155.00
  C 38.11 155.43 38.54 156.02 38.60 156.77
  C 38.65 157.33 38.86 157.40 39.23 156.97
  C 39.89 156.22 40.14 155.32 39.99 154.28
  C 39.94 153.89 40.14 153.51 40.49 153.33
  L 43.04 152.04
  C 43.41 151.86 43.76 151.89 44.09 152.13
  C 44.94 152.75 45.27 153.65 45.06 154.82
  C 45.01 155.09 45.08 155.31 45.28 155.49
  C 45.40 155.60 45.51 155.62 45.61 155.55
  C 45.68 155.50 45.74 155.43 45.78 155.34
  C 46.34 154.14 46.81 152.90 47.18 151.61
  C 47.42 150.79 48.12 150.20 48.97 150.10
  C 49.52 150.04 49.99 149.80 50.36 149.39
  C 50.63 149.08 50.90 149.08 51.17 149.41
  C 51.76 150.14 52.12 150.99 52.25 151.95
  C 52.31 152.43 52.49 152.48 52.79 152.09
  C 53.50 151.17 53.92 150.19 54.03 149.14
  C 54.07 148.80 54.22 148.51 54.48 148.28
  C 55.55 147.33 56.80 146.90 58.25 146.98
  C 58.60 147.00 58.85 147.16 59.01 147.47
  L 59.46 148.33
  C 59.70 148.80 59.93 148.80 60.15 148.32
  L 61.30 145.84
  C 61.39 145.65 61.55 145.49 61.75 145.40
  L 64.45 144.17
  C 64.90 143.96 65.25 144.07 65.52 144.49
  C 65.93 145.15 66.19 145.93 66.30 146.84
  C 66.34 147.14 66.62 147.35 66.92 147.29
  L 67.33 147.21
  C 67.77 147.13 67.99 146.87 67.99 146.42
  L 68.00 144.18
  C 68.01 143.79 68.17 143.48 68.48 143.25
  C 69.65 142.40 70.91 141.90 72.26 141.76
  C 72.64 141.72 72.87 141.89 72.94 142.26
  C 73.10 143.07 73.47 143.75 74.05 144.30
  C 74.38 144.61 74.58 144.55 74.66 144.10
  C 75.14 141.26 76.82 138.54 80.19 139.06
  C 80.50 139.11 80.69 139.29 80.78 139.59
  L 81.32 141.53
  C 81.46 142.02 81.67 142.05 81.96 141.63
  C 82.39 141.00 82.69 140.31 82.86 139.54
  C 83.26 137.76 84.93 136.61 86.60 136.16
  C 87.47 135.93 88.00 136.25 88.19 137.12
  L 88.67 139.28
  C 88.78 139.79 88.98 139.82 89.25 139.37
  C 89.75 138.52 90.08 137.61 90.24 136.62
  C 90.43 135.38 91.33 134.37 92.54 134.04
  C 93.02 133.91 93.50 133.74 93.97 133.54
  C 95.07 133.09 96.25 133.87 96.19 134.99
  C 96.16 135.56 96.40 136.09 96.92 136.58
  C 97.26 136.92 97.52 136.87 97.71 136.42
  C 97.94 135.83 98.06 135.23 98.05 134.61
  C 98.03 132.87 99.24 131.35 100.94 130.97
  C 101.37 130.88 101.78 130.73 102.16 130.53
  C 102.37 130.42 102.59 130.41 102.82 130.51
  C 103.72 130.91 104.12 131.57 104.02 132.50
  C 103.99 132.78 104.10 133.04 104.31 133.22
  C 104.56 133.43 104.68 133.69 104.67 134.00
  C 104.66 134.59 104.80 134.63 105.09 134.13
  C 105.58 133.32 105.86 132.48 105.93 131.61
  C 106.00 130.87 106.25 130.23 106.70 129.69
  C 107.55 128.65 108.78 128.00 110.38 127.73
  C 111.14 127.60 111.85 128.15 111.92 128.92
  C 111.99 129.67 112.29 130.32 112.82 130.88
  C 113.07 131.14 113.28 131.11 113.44 130.79
  C 114.45 128.79 114.14 126.60 116.49 125.37
  C 117.84 124.67 119.81 124.80 120.29 126.48
  C 120.45 127.02 120.65 127.57 120.88 128.14
  C 121.00 128.42 121.36 128.48 121.57 128.26
  C 121.79 128.03 121.90 127.75 121.89 127.43
  C 121.82 123.98 123.40 122.14 126.64 121.90
  C 126.91 121.88 127.16 121.78 127.36 121.60
  L 127.59 121.40
  C 127.73 121.28 127.81 121.31 127.84 121.49
  C 128.03 122.72 128.43 123.95 129.06 125.20
  C 129.22 125.52 129.41 125.54 129.63 125.25
  C 130.52 124.07 131.01 122.81 131.08 121.47
  C 131.09 121.13 131.21 120.83 131.42 120.56
  C 132.63 119.07 134.23 118.57 136.22 119.07
  C 136.79 119.22 137.19 119.74 137.17 120.33
  C 137.14 121.17 137.32 121.96 137.71 122.70
  C 137.96 123.18 138.09 123.15 138.12 122.61
  C 138.24 120.45 139.05 118.56 140.55 116.95
  C 141.58 115.83 142.49 116.25 143.61 115.54
  C 143.89 115.36 144.17 115.36 144.45 115.54
  C 145.49 116.23 146.05 117.15 146.14 118.30
  C 146.24 119.71 146.55 119.76 147.06 118.44
  C 147.51 117.29 147.88 116.08 148.18 114.81
  C 148.27 114.42 148.49 114.11 148.82 113.89
  C 150.09 113.06 151.57 112.42 153.25 111.95
  C 153.60 111.85 153.94 112.12 153.94 112.48
  C 153.94 113.66 154.34 114.86 155.15 116.08
  C 155.34 116.38 155.53 116.37 155.70 116.06
  C 156.48 114.67 156.92 113.29 157.01 111.92
  C 157.04 111.60 157.17 111.34 157.40 111.14
  C 158.71 110.03 160.23 109.29 161.97 108.94
  C 162.28 108.88 162.58 109.04 162.71 109.32
  C 163.40 110.85 163.96 112.44 164.41 114.10
  Z
  M 183.1931 108.0583
  C 183.36 108.05 183.46 107.12 183.4098 105.9780
  C 183.36 104.84 183.19 103.92 183.0269 103.9217
  C 182.86 103.93 182.76 104.86 182.8102 106.0020
  C 182.86 107.14 183.03 108.06 183.1931 108.0583
  Z"
/>
<path fill="#ffffff" d="
  M 378.20 84.77
  L 380.03 76.42
  C 380.18 75.70 380.63 75.31 381.37 75.24
  C 384.05 74.99 386.60 75.34 389.01 76.27
  C 389.33 76.40 389.55 76.62 389.68 76.93
  C 390.17 78.14 390.49 79.45 390.62 80.86
  C 390.85 83.22 391.52 85.34 392.63 87.21
  C 393.13 88.05 393.44 87.98 393.57 87.01
  L 394.79 77.82
  C 394.84 77.45 395.05 77.26 395.43 77.25
  C 397.34 77.22 399.67 77.59 402.42 78.38
  C 403.62 78.72 404.31 79.49 404.49 80.70
  C 404.93 83.59 405.70 86.44 406.81 89.25
  C 406.91 89.51 407.27 89.53 407.41 89.29
  C 409.05 86.41 409.35 83.57 410.06 80.42
  C 410.15 80.04 410.39 79.86 410.78 79.87
  C 413.73 79.94 416.36 80.54 418.65 81.67
  C 418.96 81.82 419.17 82.06 419.28 82.38
  C 420.20 85.07 420.85 87.91 421.22 90.92
  C 421.31 91.67 421.62 91.79 422.17 91.26
  C 423.66 89.81 424.14 84.60 424.11 82.80
  C 424.10 82.49 424.25 82.36 424.56 82.40
  L 433.22 83.54
  C 434.07 83.65 434.70 84.37 434.71 85.23
  C 434.72 88.43 435.43 91.30 436.82 93.83
  C 437.16 94.45 437.43 94.42 437.62 93.73
  L 439.78 85.99
  C 439.87 85.64 440.10 85.46 440.45 85.45
  C 443.23 85.34 445.86 85.61 448.35 86.27
  C 448.66 86.35 448.90 86.52 449.07 86.79
  C 449.66 87.72 449.95 88.75 449.92 89.88
  C 449.86 92.13 450.81 94.02 451.15 96.21
  C 451.29 97.12 451.57 97.16 451.98 96.34
  C 453.32 93.67 452.88 91.00 454.40 88.44
  C 454.55 88.18 454.78 88.04 455.08 88.02
  C 457.25 87.86 461.76 87.83 463.68 89.28
  C 463.99 89.51 464.17 89.82 464.23 90.20
  C 464.73 93.22 465.06 96.67 466.77 99.25
  C 467.10 99.74 467.32 99.69 467.43 99.11
  L 469.02 90.98
  C 469.11 90.47 469.42 90.22 469.94 90.23
  C 472.71 90.26 475.35 90.61 477.84 91.30
  C 478.49 91.48 478.97 92.02 479.06 92.69
  C 479.40 95.20 479.69 99.02 481.17 101.07
  C 481.34 101.30 481.70 101.25 481.80 100.98
  C 482.63 98.71 483.17 96.30 483.40 93.76
  C 483.45 93.14 483.98 92.67 484.60 92.68
  C 487.45 92.73 490.21 93.15 492.90 93.94
  C 493.23 94.03 493.43 94.25 493.51 94.58
  L 495.22 101.80
  C 495.83 104.35 496.53 104.37 497.34 101.88
  C 497.94 100.01 498.20 98.03 498.13 95.93
  C 498.11 95.49 498.47 95.12 498.91 95.11
  C 502.02 95.06 505.02 95.56 507.93 96.62
  C 508.24 96.73 508.44 96.96 508.51 97.29
  L 510.23 105.03
  C 510.56 106.54 511.04 106.59 511.65 105.16
  C 512.54 103.08 513.22 100.83 513.67 98.42
  C 513.81 97.67 514.25 97.36 515.00 97.49
  L 521.64 98.58
  C 523.03 98.81 523.76 99.62 523.82 101.03
  C 523.94 103.62 524.49 105.97 525.48 108.08
  C 526.03 109.27 526.43 109.22 526.68 107.94
  L 528.11 100.77
  C 528.19 100.36 528.44 100.17 528.85 100.20
  C 531.61 100.35 534.33 100.68 537.01 101.21
  C 537.88 101.38 538.36 101.90 538.45 102.79
  C 538.72 105.54 539.32 108.05 540.24 110.32
  C 540.88 111.92 541.33 111.87 541.60 110.16
  C 541.92 108.09 541.91 103.56 544.69 103.37
  C 547.00 103.22 549.48 103.53 552.11 104.30
  C 552.40 104.39 552.64 104.59 552.77 104.86
  C 553.53 106.37 553.95 108.13 554.03 110.13
  C 554.07 111.20 554.38 112.14 554.97 112.95
  C 555.22 113.30 555.47 113.30 555.74 112.97
  C 556.82 111.63 557.28 110.19 557.11 108.66
  C 556.91 106.83 558.33 105.23 560.16 105.20
  C 562.43 105.17 564.80 105.56 567.27 106.36
  C 567.58 106.46 567.74 106.67 567.75 106.99
  C 567.84 109.30 568.39 111.71 569.42 114.20
  C 570.07 115.79 570.67 115.77 571.22 114.14
  C 571.85 112.26 572.35 110.40 572.73 108.57
  C 572.93 107.62 573.51 107.22 574.48 107.39
  L 580.99 108.51
  C 582.17 108.72 582.75 109.42 582.73 110.61
  C 582.72 111.51 582.96 112.50 583.45 113.59
  C 583.88 114.54 583.93 115.38 584.01 116.39
  C 584.04 116.72 584.20 116.99 584.48 117.18
  C 584.78 117.39 585.11 117.54 585.46 117.64
  C 585.83 117.75 586.03 117.61 586.04 117.22
  L 586.11 115.73
  C 586.12 115.36 586.22 115.01 586.40 114.68
  C 587.01 113.57 587.29 112.41 587.23 111.21
  C 587.22 110.91 587.36 110.74 587.66 110.69
  C 590.67 110.21 593.58 110.41 596.39 111.29
  C 596.85 111.44 597.19 111.84 597.24 112.32
  L 597.54 115.01
  C 597.58 115.40 597.71 115.77 597.91 116.10
  C 598.66 117.29 599.00 118.61 598.93 120.08
  C 598.90 120.58 599.11 120.71 599.55 120.46
  C 599.82 120.31 600.06 120.13 600.28 119.91
  C 600.69 119.50 600.92 119.00 600.97 118.41
  C 601.10 116.56 601.93 114.66 603.46 112.69
  C 603.76 112.30 604.13 112.20 604.58 112.38
  C 606.49 113.14 608.50 113.58 610.61 113.69
  C 610.90 113.71 611.13 113.84 611.28 114.09
  C 612.25 115.58 612.80 117.13 612.95 118.74
  C 613.08 120.15 613.89 120.94 614.03 122.28
  C 614.08 122.73 614.29 122.82 614.66 122.57
  C 616.12 121.54 616.56 119.96 616.21 118.23
  C 616.12 117.81 616.34 117.38 616.74 117.21
  L 617.01 117.09
  C 617.30 116.96 617.44 116.63 617.34 116.32
  C 617.25 116.04 617.28 115.77 617.43 115.50
  C 617.58 115.24 617.86 115.09 618.16 115.13
  L 622.67 115.69
  C 623.41 115.78 623.96 116.41 623.95 117.16
  C 623.92 118.99 623.91 120.90 623.91 122.91
  C 623.92 126.17 621.62 128.85 618.26 128.34
  C 612.11 127.39 606.27 126.54 600.75 125.77
  C 599.91 125.66 599.23 125.50 598.72 125.31
  C 598.08 125.08 597.42 124.91 596.74 124.81
  C 590.77 123.94 584.82 123.00 578.89 121.98
  C 572.46 120.87 566.52 119.91 561.07 119.08
  C 543.02 116.33 524.49 113.39 505.46 110.26
  C 504.11 110.04 502.88 109.83 501.77 109.64
  C 485.45 106.79 469.35 104.21 453.46 101.92
  C 450.81 101.54 448.31 100.91 445.70 100.71
  C 444.68 100.64 443.64 100.52 442.57 100.36
  C 423.09 97.41 404.15 94.30 385.75 91.05
  C 380.99 90.20 376.09 89.81 371.26 89.01
  C 355.45 86.38 338.88 83.73 321.53 81.05
  C 312.39 79.63 306.02 79.42 304.04 70.48
  C 303.59 68.41 303.53 65.75 303.86 62.49
  C 303.91 62.08 304.14 61.89 304.55 61.94
  L 313.88 63.09
  C 315.25 63.26 316.00 64.02 316.13 65.39
  C 316.46 68.72 317.11 71.70 318.08 74.33
  C 318.19 74.63 318.61 74.65 318.75 74.36
  C 320.08 71.49 321.04 68.55 321.62 65.53
  C 321.69 65.15 321.92 64.99 322.30 65.04
  L 330.16 66.15
  C 330.45 66.19 330.67 66.42 330.71 66.70
  C 331.07 69.65 331.52 72.45 332.06 75.08
  C 332.22 75.86 332.61 76.51 333.24 77.03
  C 333.55 77.28 333.75 77.21 333.84 76.82
  L 335.75 68.29
  C 335.84 67.90 336.08 67.71 336.48 67.71
  C 339.31 67.74 342.13 68.08 344.93 68.72
  C 345.29 68.80 345.51 69.02 345.58 69.38
  C 346.17 72.51 346.72 75.51 347.24 78.38
  C 347.37 79.11 347.79 79.35 348.48 79.09
  C 348.79 78.98 348.97 78.76 349.03 78.45
  L 350.43 71.20
  C 350.50 70.83 350.72 70.61 351.09 70.54
  C 353.88 69.99 356.73 70.27 359.62 71.36
  C 360.25 71.60 360.59 72.06 360.64 72.74
  C 360.85 75.36 361.35 78.06 362.13 80.83
  C 362.55 82.34 362.99 82.34 363.44 80.85
  C 364.33 77.96 364.51 75.51 366.61 73.03
  C 366.81 72.79 367.10 72.66 367.41 72.65
  C 369.68 72.62 371.86 72.85 373.96 73.34
  C 374.57 73.48 375.01 74.02 375.05 74.65
  C 375.25 78.11 376.10 81.50 377.61 84.83
  C 377.87 85.40 378.07 85.38 378.20 84.77
  Z"
/>
<path fill="#ffffff" d="
  M 27.75 290.76
  C 27.02 290.64 26.37 290.42 25.78 290.10
  C 25.49 289.94 25.35 289.69 25.35 289.36
  C 25.23 274.82 25.24 264.86 25.37 259.48
  C 25.90 237.75 26.11 215.90 25.99 193.93
  C 25.98 192.86 26.27 192.29 27.00 191.56
  C 27.43 191.13 27.34 190.90 26.75 190.85
  C 26.60 190.84 26.47 190.78 26.36 190.68
  C 26.11 190.46 25.99 190.18 25.99 189.85
  L 25.99 187.50
  C 25.99 187.15 25.83 186.91 25.51 186.77
  C 23.37 185.84 23.94 182.89 25.12 181.48
  C 25.37 181.17 25.70 180.98 26.09 180.91
  C 26.26 180.88 26.42 180.80 26.55 180.67
  C 26.76 180.47 26.72 180.40 26.43 180.45
  C 24.39 180.82 21.79 181.43 18.64 182.29
  C 16.78 182.80 14.85 181.78 14.23 179.96
  L 14.00 179.29
  C 13.45 177.66 13.99 176.60 15.64 176.09
  C 26.83 172.66 38.31 168.91 50.09 164.82
  C 53.32 163.70 56.55 162.89 59.72 161.47
  C 60.52 161.12 61.34 160.94 62.19 160.94
  C 62.55 160.94 62.87 160.83 63.15 160.61
  C 63.75 160.15 64.43 159.94 65.20 159.99
  C 65.55 160.01 65.90 159.91 66.19 159.72
  C 67.04 159.15 68.02 158.90 69.13 158.96
  C 69.50 158.98 69.84 158.91 70.17 158.76
  C 73.62 157.11 77.39 155.78 81.49 154.75
  C 81.98 154.63 82.46 154.49 82.93 154.33
  C 110.79 144.92 138.08 135.92 164.81 127.35
  C 165.56 127.12 166.27 126.88 166.96 126.64
  C 172.75 124.65 178.67 122.69 184.72 120.77
  C 186.17 120.31 187.31 119.63 188.82 119.25
  C 189.75 119.02 191.06 118.62 192.76 118.06
  C 205.57 113.83 218.38 109.57 231.18 105.30
  C 232.24 104.95 233.26 104.57 234.25 104.16
  C 236.13 103.38 238.10 103.34 239.89 102.50
  C 240.81 102.07 241.75 101.74 242.71 101.50
  C 246.27 100.60 249.81 99.55 253.33 98.34
  C 253.80 98.18 253.92 97.96 254.27 97.66
  C 254.40 97.55 254.55 97.47 254.72 97.44
  C 256.57 97.05 258.41 96.55 260.24 95.95
  C 266.84 93.78 273.61 91.51 280.56 89.14
  C 282.15 88.60 283.73 88.05 285.29 87.49
  C 287.00 86.87 288.72 86.41 290.43 86.11
  C 291.53 85.91 292.41 87.01 291.98 88.04
  C 291.07 90.24 290.45 92.64 288.88 94.44
  C 285.87 97.87 282.34 100.23 278.02 101.14
  C 276.36 101.49 274.75 101.92 273.20 102.44
  C 271.40 103.03 269.53 103.51 267.58 103.88
  C 266.69 104.05 265.80 104.38 264.92 104.86
  C 262.58 106.15 259.70 106.65 257.12 107.36
  C 253.93 108.23 250.96 109.69 247.71 110.49
  C 246.24 110.85 244.79 111.25 243.34 111.69
  C 240.22 112.64 237.24 113.69 234.41 114.84
  C 232.76 115.51 231.20 115.92 229.75 116.08
  C 229.57 116.09 229.39 116.14 229.22 116.21
  C 229.09 116.26 228.98 116.33 228.89 116.42
  C 228.80 116.51 228.69 116.58 228.56 116.61
  C 226.33 117.23 224.10 117.83 221.87 118.40
  C 219.59 118.99 217.39 119.73 215.27 120.60
  C 211.90 121.99 208.58 123.05 205.31 123.78
  C 202.04 124.51 199.15 126.22 195.83 126.82
  C 192.10 127.50 188.93 129.47 185.34 130.11
  C 183.41 130.46 181.68 130.89 180.17 131.42
  C 174.92 133.26 169.61 134.96 164.26 136.51
  C 163.26 136.80 162.29 137.16 161.34 137.59
  C 159.94 138.23 158.41 138.05 156.90 138.73
  C 155.19 139.50 153.61 140.06 152.16 140.43
  C 150.04 140.97 148.42 141.44 147.30 141.85
  C 144.93 142.73 142.52 143.52 140.05 144.23
  C 133.30 146.17 126.71 148.25 120.26 150.46
  C 119.56 150.70 118.83 150.86 118.08 150.95
  C 116.94 151.08 116.33 151.81 115.20 152.14
  C 113.59 152.61 111.96 153.14 110.33 153.73
  C 108.72 154.31 107.07 154.80 105.39 155.21
  C 103.38 155.70 101.48 156.32 99.69 157.06
  C 97.77 157.86 95.92 158.40 94.14 158.68
  C 91.40 159.11 88.61 159.97 85.78 161.27
  C 84.15 162.01 82.41 162.53 80.58 162.84
  C 78.02 163.27 75.73 164.60 73.21 165.23
  C 70.42 165.93 67.58 166.81 64.67 167.88
  C 64.42 167.97 64.22 168.13 64.07 168.34
  C 63.82 168.68 63.49 168.81 63.06 168.73
  C 62.69 168.66 62.32 168.69 61.97 168.82
  C 60.01 169.59 57.99 170.21 55.90 170.67
  C 53.79 171.14 51.78 171.73 49.89 172.45
  C 45.28 174.22 40.73 175.63 36.24 176.68
  C 33.65 177.28 31.51 178.74 28.89 179.47
  C 27.97 179.72 27.98 179.91 28.93 180.03
  C 29.89 180.16 30.70 179.92 31.35 179.31
  C 31.58 179.09 31.86 179.02 32.17 179.10
  C 34.59 179.70 33.39 182.27 32.87 183.78
  C 32.59 184.61 32.02 184.98 31.15 184.89
  C 30.30 184.81 30.20 185.05 30.86 185.60
  C 30.98 185.70 31.11 185.79 31.26 185.87
  C 31.61 186.06 31.83 186.35 31.92 186.73
  C 32.27 188.15 31.79 189.19 30.50 189.84
  C 30.19 189.99 30.18 190.17 30.46 190.37
  C 31.15 190.87 31.50 191.54 31.51 192.39
  C 31.85 222.50 32.07 253.39 32.17 285.08
  C 32.17 286.63 32.79 287.80 32.26 289.40
  C 32.13 289.82 31.80 290.08 31.29 290.19
  C 30.16 290.42 30.16 290.67 31.27 290.96
  C 33.65 291.56 34.32 295.69 30.80 295.32
  C 30.68 295.31 30.62 295.37 30.61 295.48
  L 30.59 295.75
  C 30.59 295.79 30.64 295.81 30.75 295.81
  L 33.46 295.80
  C 33.86 295.80 34.23 296.03 34.40 296.39
  C 35.20 298.13 35.23 299.80 34.48 301.39
  C 34.33 301.73 34.07 301.94 33.70 302.02
  C 30.39 302.75 27.17 302.77 24.02 302.09
  C 23.63 302.00 23.37 301.77 23.24 301.38
  C 22.72 299.72 22.73 298.19 23.27 296.78
  C 23.43 296.35 23.74 296.10 24.19 296.02
  C 25.30 295.84 26.49 295.81 27.78 295.92
  C 27.87 295.93 27.92 295.88 27.93 295.79
  L 27.95 295.54
  C 27.96 295.51 27.94 295.49 27.91 295.49
  C 26.96 295.50 26.02 295.34 25.11 295.01
  C 24.78 294.88 24.62 294.64 24.63 294.29
  C 24.64 293.40 24.82 292.51 25.17 291.63
  C 25.32 291.24 25.61 291.04 26.02 291.03
  L 27.73 290.98
  C 28.52 290.95 28.53 290.88 27.75 290.76
  Z"
/>
<path fill="#ffffff" d="
  M 621.29 136.39
  C 621.33 136.47 621.37 136.55 621.41 136.63
  C 621.56 136.91 621.59 137.20 621.50 137.51
  C 620.55 140.89 618.22 142.30 614.50 141.75
  C 608.98 140.93 603.98 140.24 599.50 139.69
  C 594.95 139.13 589.97 138.32 584.57 137.25
  C 571.90 134.75 559.19 133.68 547.73 131.83
  C 542.21 130.94 536.30 130.06 530.00 129.19
  C 518.27 127.59 506.68 126.02 494.71 124.02
  C 483.20 122.09 471.59 120.34 459.90 118.76
  C 453.40 117.88 446.81 116.92 440.12 115.89
  C 430.19 114.34 420.24 112.88 410.28 111.50
  C 406.16 110.93 401.91 110.23 397.52 109.41
  C 391.55 108.30 387.30 107.57 384.75 107.24
  C 364.41 104.57 344.10 101.69 323.81 98.62
  C 321.51 98.27 319.72 97.77 317.04 97.61
  C 312.74 97.35 308.82 92.64 307.17 89.10
  C 306.58 87.85 306.98 87.24 308.35 87.25
  C 308.62 87.26 308.89 87.28 309.15 87.32
  C 333.14 91.01 357.62 94.86 382.59 98.89
  C 391.64 100.35 400.37 101.22 409.14 102.65
  C 442.02 108.01 473.14 112.91 502.49 117.36
  C 520.53 120.10 543.04 123.61 570.02 127.90
  C 579.61 129.42 589.35 130.88 599.24 132.28
  C 602.03 132.67 604.73 133.08 607.36 133.49
  C 609.46 133.82 611.64 134.13 613.91 134.42
  C 616.20 134.71 618.40 135.14 620.50 135.73
  C 620.86 135.83 621.12 136.05 621.29 136.39
  Z"
/>
<path fill="#ffffff" d="
  M 282.93 111.07
  C 281.98 111.50 280.97 111.81 279.89 112.02
  C 278.82 112.22 277.74 112.47 276.65 112.76
  C 274.54 113.32 272.47 113.77 270.44 114.10
  C 270.23 114.14 270.03 114.22 269.85 114.35
  C 269.76 114.42 269.68 114.48 269.60 114.55
  C 269.44 114.68 269.30 114.66 269.17 114.51
  L 268.37 113.59
  C 268.13 113.31 268.02 112.99 268.03 112.62
  L 268.25 108.24
  C 268.27 107.89 268.42 107.60 268.70 107.39
  C 269.81 106.52 271.10 106.08 272.59 106.07
  C 272.93 106.07 273.24 105.97 273.51 105.77
  C 274.06 105.37 274.63 105.11 275.24 104.99
  C 277.57 104.51 279.85 103.89 282.10 103.14
  C 284.88 102.21 287.14 101.48 288.89 100.93
  C 290.56 100.41 291.44 101.03 291.51 102.78
  C 291.56 104.14 291.60 105.00 291.61 105.35
  C 291.69 107.28 290.79 108.49 288.92 108.97
  C 286.90 109.48 284.90 110.18 282.93 111.07
  Z"
/>
<path fill="#ffffff" d="
  M 335.19 105.81
  C 337.33 106.20 339.39 106.76 341.34 107.70
  C 341.61 107.83 341.77 108.11 341.76 108.41
  C 341.72 109.20 341.48 109.88 341.03 110.44
  C 340.78 110.75 340.46 110.92 340.06 110.94
  C 337.05 111.09 334.70 111.00 333.02 110.67
  C 330.51 110.18 328.04 109.86 325.62 109.73
  C 323.92 109.63 322.46 108.85 320.80 108.80
  C 316.87 108.68 311.75 108.10 311.46 103.36
  C 311.44 102.96 311.63 102.75 312.03 102.73
  C 314.43 102.62 317.00 102.78 319.75 103.21
  C 325.08 104.04 330.22 104.90 335.19 105.81
  Z"
/>
<path fill="#ffffff" d="
  M 371.69 115.65
  C 368.54 114.91 363.70 114.97 363.21 110.86
  C 363.14 110.28 363.40 110.00 363.98 110.03
  C 373.58 110.44 382.85 111.60 391.78 113.49
  C 392.92 113.73 393.31 114.40 392.94 115.50
  L 392.70 116.22
  C 392.29 117.45 391.45 117.99 390.16 117.84
  C 386.05 117.35 382.06 117.04 378.12 116.26
  C 375.93 115.83 373.83 116.15 371.69 115.65
  Z"
/>
<path fill="#ffffff" d="
  M 282.29 112.46
  C 284.26 112.34 285.64 111.39 287.79 111.70
  C 288.27 111.77 288.45 112.03 288.33 112.50
  C 287.87 114.38 287.83 116.91 285.70 117.70
  C 282.58 118.87 278.91 120.01 274.70 121.13
  C 273.39 121.48 272.50 121.02 272.01 119.75
  C 271.68 118.90 271.46 118.36 271.37 118.11
  C 270.88 116.85 271.28 116.00 272.56 115.56
  C 274.31 114.95 276.07 114.42 277.82 113.97
  C 279.37 113.57 280.68 112.56 282.29 112.46
  Z"
/>
<path fill="#ffffff" d="
  M 248.22 120.91
  C 245.45 121.31 242.79 122.71 240.03 123.26
  C 237.60 123.75 235.21 124.52 232.86 125.58
  C 232.47 125.75 232.19 125.65 232.00 125.27
  C 231.15 123.56 231.06 121.56 231.74 119.27
  C 231.84 118.94 232.04 118.70 232.33 118.54
  C 233.39 117.97 234.54 117.48 235.77 117.09
  C 240.46 115.60 245.04 114.31 249.51 113.22
  C 249.96 113.11 250.33 112.78 250.75 112.60
  C 251.33 112.36 251.96 112.78 251.97 113.40
  L 252.01 118.13
  C 252.02 118.40 251.93 118.65 251.75 118.86
  C 250.79 120.02 249.61 120.70 248.22 120.91
  Z"
/>
<path fill="#ffffff" d="
  M 318.09 115.19
  C 317.92 114.76 317.97 114.30 318.26 113.82
  C 318.41 113.55 318.64 113.40 318.94 113.36
  C 320.56 113.13 322.10 113.21 323.57 113.62
  C 324.70 113.93 325.84 114.10 326.97 114.11
  C 329.33 114.15 331.31 115.02 333.61 115.08
  C 334.70 115.11 335.80 115.16 336.90 115.23
  C 337.43 115.26 337.57 115.52 337.34 115.99
  C 336.90 116.90 336.73 117.88 335.67 118.22
  C 333.25 119.01 331.19 118.91 329.49 117.90
  C 329.08 117.66 328.63 117.54 328.16 117.55
  C 325.07 117.59 321.81 117.20 318.36 116.38
  C 317.86 116.26 317.79 116.01 318.14 115.63
  C 318.17 115.59 318.19 115.54 318.18 115.49
  C 318.16 115.39 318.13 115.29 318.09 115.19
  Z"
/>
<path fill="#ffffff" d="
  M 415.03 123.41
  C 414.41 123.34 413.98 122.78 414.05 122.16
  L 414.31 120.10
  C 414.42 119.17 417.63 118.80 421.47 119.27
  L 435.17 120.95
  C 439.01 121.42 442.03 122.56 441.92 123.49
  L 441.66 125.56
  C 441.59 126.17 441.03 126.61 440.42 126.53
  L 415.03 123.41
  Z"
/>
<path fill="#ffffff" d="
  M 282.05 120.56
  L 282.29 120.35
  C 282.45 120.21 282.64 120.15 282.85 120.16
  C 283.68 120.23 284.48 120.14 285.25 119.89
  C 285.64 119.76 285.87 119.90 285.93 120.31
  C 286.24 122.48 286.42 124.55 286.48 126.50
  C 286.90 140.69 287.10 156.18 287.08 172.99
  C 287.07 178.88 287.20 185.54 287.47 192.98
  C 288.08 209.88 288.22 226.79 287.91 243.70
  C 287.88 245.41 288.33 247.46 288.34 248.87
  C 288.45 258.40 288.68 268.20 289.03 278.26
  C 289.06 279.01 288.72 279.52 288.03 279.79
  C 287.14 280.14 286.27 280.34 285.40 280.38
  C 281.45 280.57 277.12 280.70 272.43 280.77
  C 271.46 280.79 270.97 280.31 270.97 279.34
  C 271.03 265.34 270.87 251.86 271.32 237.75
  C 271.91 219.46 272.15 201.16 272.02 182.83
  C 271.98 175.64 272.58 168.48 272.49 161.28
  C 272.47 159.55 272.96 157.69 272.96 156.25
  C 273.00 146.32 273.00 136.23 272.96 125.99
  C 272.95 124.31 273.55 123.25 274.78 122.80
  C 277.11 121.95 279.34 121.29 281.48 120.84
  C 281.69 120.80 281.88 120.71 282.05 120.56
  Z"
/>
<path fill="#ffffff" d="
  M 369.48 120.55
  C 369.52 120.46 369.58 120.40 369.65 120.36
  C 369.73 120.32 369.81 120.30 369.90 120.30
  C 376.13 120.31 382.19 121.01 388.10 122.40
  C 388.61 122.52 388.73 122.81 388.46 123.26
  L 387.55 124.76
  C 387.29 125.20 386.90 125.38 386.39 125.31
  C 382.18 124.72 377.89 124.18 373.50 123.71
  C 371.09 123.45 368.84 123.02 368.43 120.16
  C 368.37 119.76 368.44 119.74 368.63 120.09
  C 368.76 120.31 368.95 120.50 369.20 120.65
  C 369.33 120.72 369.42 120.69 369.48 120.55
  Z"
/>
<path fill="#ffffff" d="
  M 315.29 279.41
  C 314.84 279.30 314.58 279.02 314.49 278.57
  C 314.15 276.80 314.08 275.20 314.27 273.78
  C 314.63 271.20 314.28 268.92 314.38 266.50
  C 314.69 259.16 314.92 251.58 315.07 243.75
  C 315.20 237.00 315.37 230.34 315.56 223.76
  C 315.98 209.36 316.26 193.94 316.41 177.51
  C 316.47 170.80 317.10 164.19 317.19 157.50
  C 317.31 148.49 317.35 139.14 317.30 129.44
  C 317.29 127.53 317.89 125.68 318.00 123.73
  C 318.09 122.09 318.94 121.40 320.54 121.66
  C 322.18 121.92 323.91 122.07 325.72 122.11
  C 328.47 122.17 330.88 122.94 333.48 123.48
  C 333.85 123.56 334.07 123.79 334.12 124.16
  C 334.42 126.29 334.58 127.65 334.59 128.25
  C 334.71 135.42 334.92 142.59 335.22 149.75
  C 335.24 150.27 335.36 150.80 335.59 151.35
  C 335.71 151.65 335.77 151.96 335.76 152.29
  C 335.41 173.58 335.59 188.73 336.29 197.74
  C 336.70 202.94 336.89 206.69 336.88 209.00
  C 336.81 220.21 336.86 231.29 337.01 242.24
  C 337.06 245.81 337.70 249.53 337.74 253.18
  C 337.83 261.89 337.87 270.63 337.84 279.42
  C 337.83 280.17 337.46 280.50 336.71 280.43
  C 332.82 280.04 328.77 279.88 324.57 279.94
  C 323.50 279.95 322.47 279.81 321.46 279.50
  C 321.16 279.40 320.83 279.39 320.52 279.47
  C 318.81 279.88 317.06 279.86 315.29 279.41
  Z"
/>
<path fill="#ffffff" d="
  M 245.92 129.61
  C 242.43 130.46 239.09 131.12 235.92 131.61
  C 235.55 131.67 235.34 131.52 235.27 131.15
  C 235.15 130.53 234.87 130.03 234.43 129.66
  C 233.50 128.89 233.68 127.41 234.77 126.89
  C 236.26 126.17 237.57 125.42 239.20 125.04
  C 242.25 124.31 245.33 123.53 248.44 122.70
  C 248.78 122.61 248.97 122.74 249.01 123.09
  C 249.22 124.74 248.86 126.40 247.92 128.07
  C 247.46 128.88 246.79 129.40 245.92 129.61
  Z"
/>
<path fill="#ffffff" d="
  M 200.46 134.93
  C 199.55 135.13 199.08 134.77 199.03 133.84
  L 198.82 129.87
  C 198.77 128.94 199.19 128.35 200.09 128.11
  C 202.12 127.57 204.05 126.87 205.89 126.02
  C 207.44 125.29 209.06 124.78 210.76 124.49
  C 212.45 124.20 214.14 123.84 215.83 123.40
  C 216.42 123.25 216.99 123.69 217.00 124.30
  L 217.00 129.05
  C 217.00 129.44 216.82 129.72 216.46 129.89
  C 213.67 131.16 210.79 132.13 207.83 132.80
  C 207.58 132.85 207.35 132.93 207.12 133.03
  C 205.87 133.59 203.65 134.22 200.46 134.93
  Z"
/>
<path fill="#ffffff" d="
  M 469.37 130.33
  L 465.53 129.38
  C 465.34 129.33 465.17 129.23 465.03 129.09
  C 464.42 128.40 464.16 127.64 464.26 126.81
  C 464.35 126.07 464.77 125.71 465.51 125.74
  C 468.78 125.87 471.69 126.11 474.22 126.46
  C 478.38 127.04 482.72 127.65 487.24 128.30
  C 488.27 128.45 489.19 128.77 490.00 129.27
  C 490.70 129.71 490.62 130.76 489.85 131.07
  C 486.73 132.33 482.46 131.65 479.04 131.53
  C 477.23 131.46 475.57 131.00 473.83 130.94
  C 472.32 130.89 470.83 130.69 469.37 130.33
  Z"
/>
<path fill="#ffffff" d="
  M 368.73 280.01
  C 368.53 279.78 368.26 279.67 367.93 279.70
  C 367.57 279.73 367.38 279.56 367.37 279.20
  C 367.02 267.11 367.12 255.55 367.69 244.53
  C 368.47 229.49 368.07 214.31 368.65 199.23
  C 368.94 191.67 369.12 185.01 369.18 179.25
  C 369.27 171.00 369.33 162.96 369.37 155.13
  C 369.38 152.95 369.86 150.78 369.92 148.59
  C 370.11 141.87 370.18 135.14 370.15 128.39
  C 370.14 127.99 370.34 127.80 370.74 127.83
  C 375.98 128.16 381.08 129.00 386.04 130.34
  C 386.37 130.43 386.53 130.64 386.53 130.98
  C 386.60 147.38 386.78 164.07 387.05 181.06
  C 387.07 182.11 387.58 183.17 387.59 184.00
  C 387.74 198.13 387.88 212.32 387.99 226.57
  C 388.03 231.92 388.80 237.25 388.76 242.54
  C 388.68 255.27 388.74 267.83 388.94 280.23
  C 388.96 281.08 388.29 281.79 387.44 281.83
  C 380.81 282.13 374.19 282.00 367.59 281.45
  C 367.44 281.44 367.37 281.35 367.38 281.20
  L 367.38 281.20
  C 367.38 281.19 367.38 281.19 367.38 281.19
  C 367.44 280.81 367.66 280.71 368.03 280.90
  C 368.59 281.18 369.14 280.49 368.73 280.01
  Z"
/>
<path fill="#ffffff" d="
  M 434.53 133.21
  L 421.44 131.75
  C 420.45 131.64 419.71 131.16 419.20 130.31
  L 418.83 129.68
  C 418.16 128.55 418.48 128.10 419.77 128.31
  L 436.10 130.97
  C 436.62 131.06 436.81 131.36 436.68 131.87
  C 436.61 132.15 436.47 132.40 436.25 132.61
  C 435.77 133.08 435.20 133.28 434.53 133.21
  Z"
/>
<path fill="#ffffff" d="
  M 247.21 134.73
  C 247.46 135.73 247.59 136.71 247.61 137.67
  C 247.93 155.35 248.11 174.35 248.16 194.67
  C 248.17 197.25 248.70 199.75 248.62 202.31
  C 248.39 209.25 248.92 216.21 248.94 222.91
  C 248.97 235.85 249.03 248.69 249.11 261.43
  C 249.12 263.13 248.84 264.89 249.12 266.54
  C 249.25 267.31 249.34 268.09 249.37 268.87
  C 249.47 271.72 249.53 274.70 249.54 277.81
  C 249.55 278.82 249.44 279.92 249.21 281.13
  C 249.14 281.52 248.91 281.73 248.51 281.75
  L 235.70 282.31
  C 234.61 282.36 234.06 281.83 234.05 280.73
  C 233.80 251.33 234.04 223.35 234.77 196.79
  C 234.94 190.52 235.01 183.84 234.98 176.75
  C 234.93 163.78 235.12 150.01 235.53 135.44
  C 235.56 134.45 236.19 133.58 237.13 133.24
  L 243.63 130.92
  C 243.87 130.83 244.12 130.81 244.36 130.85
  C 245.01 130.95 245.65 130.89 246.28 130.66
  C 246.52 130.57 246.71 130.63 246.85 130.85
  C 247.46 131.78 247.59 132.74 247.26 133.73
  C 247.15 134.06 247.13 134.39 247.21 134.73
  Z"
/>
<path fill="#ffffff" d="
  M 182.83 140.32
  L 182.56 140.67
  C 182.44 140.83 182.24 140.92 182.03 140.90
  C 180.75 140.77 179.64 140.92 178.71 141.35
  C 177.96 141.69 177.19 141.97 176.39 142.20
  C 174.48 142.73 172.73 143.18 171.13 143.57
  C 169.60 143.94 168.86 143.33 168.92 141.76
  L 169.02 139.05
  C 169.06 137.95 169.61 137.24 170.66 136.92
  L 184.38 132.73
  C 184.70 132.64 184.90 132.75 184.98 133.07
  C 185.31 134.38 185.58 135.82 185.79 137.39
  C 185.97 138.77 184.80 140.14 183.40 140.06
  C 183.17 140.05 182.98 140.13 182.83 140.32
  Z"
/>
<path fill="#ffffff" d="
  M 208.67 140.14
  L 208.46 140.40
  C 208.43 140.43 208.40 140.44 208.36 140.44
  C 206.69 140.43 205.01 140.60 203.32 140.95
  C 202.80 141.06 202.43 141.03 202.22 140.85
  C 201.99 140.66 201.91 140.40 201.98 140.09
  C 202.06 139.72 201.96 139.42 201.68 139.18
  C 200.16 137.88 201.26 136.07 202.76 135.56
  C 205.24 134.71 207.70 134.04 210.15 133.55
  C 210.88 133.40 211.57 133.11 212.23 132.68
  C 212.53 132.49 212.89 132.45 213.22 132.57
  C 213.78 132.78 214.23 133.19 214.56 133.82
  C 214.71 134.11 214.69 134.39 214.49 134.65
  C 213.39 136.11 214.31 138.11 211.86 138.64
  C 211.49 138.72 211.16 138.93 210.93 139.25
  C 210.60 139.70 210.16 139.89 209.61 139.80
  C 209.23 139.74 208.92 139.85 208.67 140.14
  Z"
/>
<path fill="#ffffff" d="
  M 536.74 138.95
  C 536.67 139.42 536.23 139.75 535.76 139.68
  L 517.18 137.00
  C 514.87 136.67 513.10 135.65 513.24 134.73
  L 513.35 133.96
  C 513.48 133.04 515.46 132.57 517.77 132.90
  L 536.35 135.58
  C 536.82 135.65 537.15 136.08 537.08 136.55
  L 536.74 138.95
  Z"
/>
<path fill="#ffffff" d="
  M 470.04 135.36
  C 470.21 134.99 470.49 134.82 470.89 134.85
  L 477.43 135.34
  C 477.74 135.37 478.03 135.47 478.29 135.64
  C 478.73 135.93 479.23 136.07 479.80 136.06
  C 481.88 136.02 483.70 136.25 485.27 136.76
  C 487.32 137.42 487.31 138.07 485.26 138.70
  C 482.09 139.66 478.94 139.01 475.74 138.76
  C 473.90 138.62 472.33 137.85 470.32 137.84
  C 469.43 137.84 469.15 137.43 469.50 136.60
  C 469.67 136.21 469.85 135.80 470.04 135.36
  Z"
/>
<path fill="#ffffff" d="
  M 434.90 283.84
  L 417.74 283.60
  C 417.41 283.60 417.25 283.44 417.25 283.11
  C 417.22 273.48 417.39 264.14 417.75 255.08
  C 418.29 241.78 418.06 228.08 418.60 215.07
  C 419.11 202.92 418.93 190.45 419.36 178.66
  C 419.59 172.11 419.86 165.53 420.17 158.92
  C 420.49 151.90 420.29 145.14 420.28 138.15
  C 420.28 137.36 420.78 136.65 421.52 136.39
  C 422.57 136.02 423.69 136.00 424.86 136.34
  C 427.77 137.18 430.54 137.50 433.17 137.30
  C 434.78 137.17 435.60 137.92 435.63 139.54
  L 437.87 280.85
  C 437.90 282.87 436.91 283.87 434.90 283.84
  Z"
/>
<path fill="#ffffff" d="
  M 567.17 140.01
  C 571.46 140.66 575.87 141.00 580.24 142.49
  C 580.58 142.61 580.82 142.83 580.95 143.16
  C 581.21 143.78 581.10 144.31 580.61 144.75
  C 580.26 145.07 579.82 145.23 579.30 145.23
  C 575.61 145.23 572.56 144.99 570.14 144.51
  C 568.57 144.20 566.88 143.97 565.05 143.84
  C 563.46 143.72 557.98 143.03 558.25 140.58
  C 558.33 139.86 558.94 139.33 559.66 139.35
  C 562.19 139.42 564.69 139.64 567.17 140.01
  Z"
/>
<path fill="#ffffff" d="
  M 208.04 283.59
  C 206.37 283.90 204.70 283.79 203.01 283.27
  C 202.83 283.22 202.66 283.20 202.49 283.21
  C 202.20 283.24 202.02 283.27 201.95 283.30
  C 201.21 283.69 200.37 283.01 200.54 282.17
  C 200.83 280.76 200.96 279.22 200.95 277.54
  C 200.80 255.91 201.08 233.62 201.77 210.69
  C 201.79 210.08 201.77 209.47 201.71 208.85
  C 201.60 207.69 202.04 206.64 202.03 205.52
  C 201.87 185.51 201.97 166.16 202.33 147.47
  C 202.34 146.48 202.40 145.47 202.50 144.44
  C 202.58 143.55 203.21 142.80 204.08 142.56
  L 210.47 140.79
  C 210.73 140.72 210.97 140.61 211.19 140.46
  C 211.77 140.08 212.29 140.12 212.76 140.59
  C 212.99 140.81 213.10 141.08 213.11 141.40
  L 214.78 281.29
  C 214.79 282.26 214.32 282.83 213.37 283.01
  C 211.60 283.35 209.81 283.27 208.04 283.59
  Z"
/>
<path fill="#ffffff" d="
  M 147.77 157.47
  L 145.91 157.60
  C 145.50 157.63 145.27 157.44 145.22 157.03
  C 145.11 156.18 144.84 155.39 144.41 154.68
  C 143.87 153.78 144.34 152.60 145.36 152.34
  C 146.87 151.94 148.03 151.26 149.63 151.03
  C 151.20 150.80 152.68 150.36 154.09 149.71
  C 154.43 149.55 154.48 149.32 154.24 149.03
  L 154.01 148.75
  C 153.90 148.61 153.70 148.59 153.56 148.69
  C 152.43 149.50 151.15 149.94 149.73 150.00
  C 149.40 150.01 149.10 150.11 148.82 150.29
  C 147.84 150.94 146.81 151.24 145.73 151.20
  C 145.37 151.19 145.06 151.31 144.79 151.56
  L 144.47 151.86
  C 144.32 152.00 144.16 152.01 143.99 151.89
  L 142.24 150.58
  C 141.94 150.36 141.87 149.94 142.08 149.63
  C 142.59 148.90 142.65 148.14 142.27 147.36
  C 142.12 147.06 142.13 146.77 142.30 146.48
  C 142.88 145.50 143.66 144.99 144.64 144.96
  C 145.05 144.95 145.43 144.85 145.79 144.67
  C 148.89 143.15 152.66 142.70 155.88 141.54
  C 156.61 141.28 157.37 141.86 157.32 142.63
  L 157.01 147.41
  C 156.99 147.76 156.69 148.04 156.34 148.03
  L 155.25 148.00
  C 154.85 147.99 154.55 148.36 154.64 148.75
  L 155.20 151.24
  C 155.28 151.61 155.25 151.99 155.09 152.33
  L 153.92 154.88
  C 153.82 155.09 153.65 155.27 153.44 155.37
  C 152.02 156.03 150.46 156.49 148.75 156.75
  C 148.10 156.85 147.77 157.09 147.77 157.47
  Z"
/>
<path fill="#ffffff" d="
  M 179.26 142.65
  L 182.41 141.75
  C 182.89 141.61 183.36 142.03 183.27 142.53
  L 182.69 145.85
  C 182.57 146.53 182.08 147.10 181.43 147.32
  L 174.95 149.53
  C 173.20 150.13 172.02 149.55 171.43 147.79
  L 171.24 147.23
  C 170.80 145.94 171.23 145.08 172.53 144.66
  C 174.32 144.09 176.25 143.41 178.32 142.63
  C 178.46 142.58 178.60 142.56 178.74 142.57
  C 178.85 142.58 178.95 142.61 179.05 142.64
  C 179.12 142.67 179.20 142.67 179.26 142.65
  Z"
/>
<path fill="#ffffff" d="
  M 519.15 141.96
  C 519.81 141.77 520.44 141.81 521.05 142.08
  C 521.36 142.22 521.68 142.28 522.02 142.26
  C 525.48 142.09 528.92 142.67 532.35 144.00
  C 532.52 144.07 532.63 144.23 532.62 144.42
  C 532.60 144.93 532.35 145.24 531.88 145.33
  C 529.60 145.78 527.21 145.73 524.72 145.18
  C 522.71 144.74 520.90 145.06 518.93 144.75
  C 518.55 144.69 518.22 144.46 518.03 144.12
  C 517.64 143.41 517.14 142.83 516.53 142.38
  C 516.12 142.07 516.16 141.85 516.67 141.74
  C 517.24 141.61 517.75 141.66 518.20 141.88
  C 518.50 142.02 518.83 142.04 519.15 141.96
  Z"
/>
<path fill="#ffffff" d="
  M 467.81 284.72
  C 467.64 284.61 467.54 284.43 467.51 284.23
  C 467.08 280.34 467.08 276.64 467.52 273.13
  C 468.99 261.40 468.05 248.84 468.47 237.17
  C 469.02 221.90 469.30 207.13 469.31 192.87
  C 469.31 186.95 469.50 180.30 469.87 172.91
  C 470.37 163.10 470.52 153.20 470.32 143.19
  C 470.31 142.62 470.59 142.30 471.15 142.22
  C 472.39 142.05 473.49 142.04 474.69 142.45
  C 476.36 143.03 478.06 143.22 479.78 143.03
  C 481.46 142.85 482.66 143.62 484.17 144.09
  C 484.50 144.19 484.66 144.41 484.66 144.75
  C 484.61 155.16 484.72 165.47 485.00 175.69
  C 485.18 182.12 485.30 188.00 485.35 193.33
  C 485.42 201.08 485.62 209.04 485.57 216.90
  C 485.53 222.96 485.68 229.29 486.01 235.88
  C 486.34 242.37 486.53 248.65 486.58 254.71
  C 486.67 264.56 486.73 274.81 486.76 285.46
  C 486.77 285.79 486.60 285.96 486.27 285.96
  C 482.13 285.96 477.36 286.27 473.28 285.57
  C 471.37 285.24 469.57 285.92 467.81 284.72
  Z"
/>
<path fill="#ffffff" d="
  M 619.24 149.69
  L 619.46 150.00
  C 619.72 150.37 619.65 150.67 619.25 150.89
  C 619.10 150.97 618.98 151.08 618.89 151.22
  C 618.72 151.49 618.51 151.52 618.26 151.31
  L 617.97 151.05
  C 617.93 151.02 617.89 151.00 617.84 151.00
  C 616.08 150.93 614.35 151.08 612.60 150.58
  C 610.81 150.07 609.08 149.80 607.41 149.75
  C 605.13 149.69 603.08 148.85 600.73 148.84
  C 599.46 148.84 598.80 148.21 598.74 146.94
  L 598.71 146.38
  C 598.66 145.25 599.19 144.74 600.31 144.84
  C 603.05 145.07 605.86 144.99 608.50 145.78
  C 611.69 146.75 615.17 147.36 618.94 147.62
  C 619.53 147.66 619.67 147.93 619.36 148.44
  L 619.20 148.68
  C 618.99 149.03 619.01 149.36 619.24 149.69
  Z"
/>
<path fill="#ffffff" d="
  M 577.66 149.55
  L 576.69 150.77
  C 576.49 151.03 576.23 151.19 575.90 151.24
  C 574.03 151.57 572.29 151.98 570.39 151.42
  C 568.14 150.77 564.33 151.51 562.60 150.01
  C 561.68 149.21 562.33 147.69 563.55 147.82
  L 577.54 149.29
  C 577.74 149.31 577.78 149.40 577.66 149.55
  Z"
/>
<path fill="#ffffff" d="
  M 516.22 214.02
  C 516.16 209.05 517.26 204.17 517.25 199.22
  C 517.22 188.49 517.28 177.86 517.42 167.33
  C 517.47 163.98 517.79 160.57 518.39 157.09
  C 518.60 155.88 518.59 154.54 518.34 153.07
  C 518.13 151.82 518.20 150.48 518.56 149.07
  C 518.64 148.77 518.83 148.64 519.14 148.68
  L 529.54 150.05
  C 530.39 150.16 531.01 150.90 530.99 151.75
  C 530.85 156.60 531.54 161.50 531.57 166.44
  C 531.67 185.89 531.46 203.93 532.30 222.43
  C 532.57 228.25 532.71 233.96 532.73 239.55
  C 532.80 255.22 532.86 270.93 532.89 286.66
  C 532.89 287.03 532.71 287.25 532.35 287.32
  C 526.56 288.55 521.49 286.97 515.72 286.91
  C 515.30 286.91 515.09 286.70 515.08 286.27
  C 514.88 271.62 515.22 257.04 516.09 242.52
  C 516.36 237.93 516.41 228.43 516.22 214.02
  Z"
/>
<path fill="#ffffff" d="
  M 177.68 284.79
  C 175.77 284.70 173.90 284.64 172.09 284.60
  C 171.39 284.58 170.83 284.01 170.84 283.31
  L 172.50 153.20
  C 172.51 151.96 173.11 151.15 174.30 150.77
  L 179.97 148.96
  C 181.36 148.51 182.06 149.02 182.08 150.48
  L 183.62 282.25
  C 183.63 283.18 182.93 283.96 182.00 284.05
  L 179.42 284.29
  C 179.16 284.32 178.93 284.46 178.80 284.69
  C 178.63 284.98 178.40 285.06 178.12 284.91
  C 177.99 284.84 177.84 284.80 177.68 284.79
  Z"
/>
<path fill="#ffffff" d="
  M 120.76 158.98
  C 119.93 159.08 119.20 158.99 118.55 158.71
  C 118.21 158.56 118.04 158.30 118.03 157.93
  L 117.97 154.01
  C 117.96 153.61 118.19 153.24 118.55 153.06
  C 120.12 152.29 121.85 151.67 123.73 151.21
  C 125.50 150.78 127.29 150.33 129.12 149.84
  C 129.55 149.73 129.91 149.54 130.20 149.27
  C 130.41 149.07 130.63 149.07 130.85 149.26
  C 133.17 151.24 131.95 154.85 129.71 156.27
  C 129.41 156.46 129.06 156.55 128.72 156.52
  C 126.43 156.35 124.35 157.74 122.03 158.04
  C 121.62 158.09 121.19 158.41 120.76 158.98
  Z"
/>
<path fill="#ffffff" d="
  M 614.40 156.86
  C 614.36 157.15 614.10 157.35 613.81 157.31
  L 603.73 155.95
  C 602.80 155.82 602.10 155.27 602.17 154.72
  L 602.28 153.96
  C 602.35 153.41 603.17 153.06 604.11 153.19
  L 614.19 154.55
  C 614.47 154.59 614.67 154.85 614.63 155.14
  L 614.40 156.86
  Z"
/>
<path fill="#ffffff" d="
  M 564.06 155.31
  C 564.00 155.62 564.10 155.85 564.36 156.02
  C 564.61 156.18 564.95 156.08 565.07 155.81
  C 565.11 155.72 565.14 155.64 565.15 155.55
  C 565.17 155.30 565.30 155.17 565.55 155.17
  C 567.17 155.16 568.84 155.20 570.55 155.27
  C 571.72 155.32 572.71 156.04 573.67 156.64
  C 574.05 156.88 574.43 156.88 574.81 156.65
  C 574.94 156.57 575.07 156.54 575.20 156.57
  C 575.53 156.65 575.70 156.86 575.71 157.21
  C 575.98 174.59 575.77 191.48 575.79 207.50
  C 575.79 211.87 576.57 216.55 576.62 220.52
  C 576.86 238.52 576.98 256.50 576.99 274.47
  C 576.99 279.19 577.33 283.86 577.63 288.57
  C 577.65 288.93 577.50 289.20 577.19 289.39
  C 575.61 290.33 574.06 289.25 572.37 289.20
  C 568.39 289.09 564.58 288.96 560.94 288.82
  C 560.55 288.81 560.36 288.61 560.36 288.22
  C 560.35 283.40 560.44 278.70 560.61 274.12
  C 561.25 257.69 560.99 241.42 561.67 224.99
  C 562.26 210.75 561.93 197.40 562.51 184.18
  C 562.90 175.40 563.09 166.69 563.08 158.06
  C 563.08 157.10 563.32 156.15 563.81 155.22
  C 564.10 154.67 564.18 154.70 564.06 155.31
  Z"
/>
<path fill="#ffffff" d="
  M 98.05 165.82
  C 99.28 165.33 100.60 165.07 101.99 165.04
  C 102.16 165.03 102.24 164.95 102.23 164.78
  L 102.20 164.46
  C 102.19 164.24 102.07 164.16 101.85 164.21
  L 98.51 164.97
  C 98.31 165.02 98.14 165.16 98.05 165.36
  C 97.98 165.53 97.98 165.69 98.05 165.82
  C 95.62 165.57 95.84 162.33 96.06 160.35
  C 96.11 159.96 96.32 159.71 96.70 159.60
  L 106.13 156.95
  C 107.68 156.51 109.10 157.97 108.62 159.51
  L 107.96 161.61
  C 107.88 161.85 107.71 162.05 107.48 162.17
  C 107.09 162.36 106.69 162.54 106.29 162.69
  C 105.06 163.16 105.06 163.63 106.29 164.09
  C 106.79 164.28 107.03 164.66 107.01 165.22
  C 106.98 166.38 106.08 167.34 105.63 168.41
  C 105.17 169.50 104.34 169.92 103.14 169.67
  C 102.73 169.58 102.35 169.66 102.01 169.92
  C 101.56 170.25 101.61 170.36 102.16 170.25
  C 103.36 170.00 104.48 170.05 105.52 170.40
  C 105.86 170.51 106.03 170.75 106.03 171.11
  C 105.95 187.66 105.85 204.19 106.29 220.73
  C 106.86 241.80 107.10 263.52 107.03 285.87
  C 107.03 286.58 106.68 286.99 105.97 287.10
  C 103.31 287.50 101.05 287.70 99.20 287.69
  C 97.91 287.68 97.27 287.04 97.26 285.75
  C 97.20 272.55 98.01 259.51 98.00 246.04
  C 97.97 226.55 97.78 206.40 98.36 186.25
  C 98.49 181.86 98.48 177.60 98.35 173.48
  C 98.30 171.81 99.32 170.99 100.88 171.00
  C 101.02 171.00 101.09 170.93 101.08 170.79
  L 101.08 170.78
  C 101.07 170.62 100.98 170.54 100.81 170.55
  C 100.11 170.58 99.42 170.54 98.73 170.45
  C 98.26 170.39 98.03 170.12 98.04 169.65
  L 98.05 165.82
  Z"
/>
<path fill="#ffffff" d="
  M 147.77 157.47
  L 153.09 156.87
  C 153.60 156.81 154.05 157.21 154.05 157.73
  C 153.97 171.50 154.11 185.13 154.48 198.62
  C 154.86 212.69 155.07 225.17 155.12 236.05
  C 155.14 240.63 155.21 245.18 155.32 249.70
  C 155.45 254.55 155.48 259.10 155.43 263.36
  C 155.35 269.56 155.42 276.19 155.63 283.25
  C 155.65 283.97 155.50 284.55 155.19 284.99
  C 154.77 285.60 154.20 285.78 153.49 285.53
  C 153.17 285.42 152.84 285.39 152.50 285.44
  C 149.85 285.83 147.26 285.88 144.71 285.60
  C 144.36 285.57 144.18 285.38 144.16 285.03
  C 143.97 282.06 143.91 278.64 143.99 274.76
  C 144.32 258.79 144.54 242.71 144.66 226.50
  C 144.68 224.05 144.70 221.63 144.73 219.25
  C 144.90 206.76 145.06 193.51 145.21 179.50
  C 145.28 172.81 145.47 166.13 145.80 159.44
  C 145.81 159.12 145.95 158.86 146.20 158.67
  L 147.77 157.47
  Z"
/>
<path fill="#ffffff" d="
  M 120.76 158.98
  C 121.12 159.13 121.53 159.01 122.00 158.64
  C 122.33 158.38 122.68 158.32 123.07 158.45
  C 124.20 158.82 125.25 158.71 126.22 158.10
  C 126.51 157.91 126.82 157.82 127.17 157.82
  L 129.37 157.82
  C 129.72 157.82 129.93 157.99 130.00 158.33
  C 130.16 159.08 129.96 159.64 129.40 160.03
  C 129.14 160.20 129.01 160.45 129.00 160.76
  L 129.00 161.31
  C 128.99 161.68 128.81 161.91 128.45 161.99
  C 127.93 162.11 127.43 162.32 126.94 162.62
  C 126.45 162.93 126.47 163.21 127.00 163.45
  L 128.50 164.10
  C 128.78 164.23 128.92 164.44 128.93 164.74
  C 129.08 170.66 129.11 176.64 129.03 182.68
  C 128.96 188.70 129.39 194.52 129.42 200.29
  C 129.55 228.95 130.10 253.14 130.00 285.32
  C 130.00 285.77 129.78 286.02 129.33 286.08
  C 128.90 286.14 128.49 286.29 128.11 286.54
  C 127.76 286.77 127.31 286.80 126.93 286.62
  C 126.64 286.49 126.35 286.50 126.07 286.67
  C 125.81 286.82 125.53 286.90 125.22 286.89
  L 120.03 286.76
  C 119.80 286.75 119.61 286.59 119.57 286.36
  C 119.00 282.72 119.56 278.68 119.62 275.92
  C 119.94 259.03 120.08 242.14 120.03 225.25
  C 120.01 217.98 120.07 211.31 120.20 205.24
  C 120.50 191.43 120.67 178.95 120.70 167.78
  C 120.70 167.41 120.65 167.06 120.56 166.72
  C 120.48 166.42 120.64 166.10 120.93 165.98
  C 121.75 165.66 122.46 165.21 123.05 164.62
  C 123.31 164.36 123.65 164.19 124.01 164.12
  C 124.32 164.06 124.62 164.07 124.91 164.16
  C 125.22 164.26 125.36 164.15 125.33 163.82
  L 125.31 163.56
  C 125.30 163.52 125.28 163.50 125.24 163.51
  C 124.22 163.71 123.27 163.95 122.38 164.23
  C 121.48 164.52 120.52 164.02 120.25 163.12
  L 119.55 160.81
  C 119.45 160.47 119.53 160.18 119.78 159.93
  L 120.76 158.98
  Z"
/>
<path fill="#ffffff" d="
  M 600.55 289.44
  C 600.31 282.98 600.34 277.25 600.64 272.26
  C 600.97 266.79 601.15 261.09 601.18 255.18
  C 601.22 247.55 601.27 240.36 601.32 233.61
  C 601.33 231.76 601.84 229.72 601.93 227.75
  C 602.45 216.26 602.71 205.08 602.70 194.23
  C 602.70 183.24 603.33 171.63 603.32 160.31
  C 603.32 159.90 603.69 159.58 604.10 159.65
  C 606.99 160.12 610.98 159.92 613.51 161.79
  C 613.79 161.99 613.96 162.26 614.03 162.59
  C 614.48 164.87 614.81 167.18 614.80 169.52
  C 614.65 189.62 614.71 209.84 615.00 230.19
  C 615.06 234.71 615.46 239.29 615.53 243.78
  C 615.76 259.21 615.83 274.80 615.75 290.55
  C 615.75 290.88 615.59 291.04 615.26 291.04
  L 600.98 290.89
  C 600.57 290.88 600.35 290.67 600.34 290.26
  C 600.33 290.15 600.36 290.05 600.42 289.95
  C 600.51 289.79 600.56 289.62 600.55 289.44
  Z"
/>
<path fill="#ffffff" d="
  M 83.65 170.18
  L 85.36 170.27
  C 85.85 170.30 86.07 170.55 86.02 171.04
  C 85.69 174.31 84.02 175.85 81.02 175.68
  C 80.66 175.66 80.34 175.76 80.05 175.98
  C 79.68 176.25 79.27 176.31 78.83 176.16
  C 78.35 175.99 78.02 175.65 77.83 175.15
  C 77.36 173.94 77.53 172.78 78.34 171.67
  C 78.64 171.26 78.53 171.04 78.02 171.03
  L 76.91 171.01
  C 76.34 171.00 75.90 170.49 75.97 169.92
  C 76.12 168.73 76.03 167.68 75.70 166.75
  C 75.52 166.26 75.68 165.93 76.17 165.78
  L 85.93 162.74
  C 86.24 162.64 86.58 162.76 86.77 163.02
  C 88.16 164.93 88.05 166.73 86.43 168.41
  C 86.17 168.68 85.85 168.84 85.48 168.87
  C 84.76 168.94 84.10 169.18 83.49 169.59
  C 82.96 169.95 83.01 170.15 83.65 170.18
  Z"
/>
<path fill="#ffffff" d="
  M 61.93 169.90
  C 62.02 169.77 62.12 169.67 62.23 169.60
  C 62.46 169.45 62.72 169.40 62.99 169.45
  C 63.99 169.64 64.82 169.33 65.49 168.52
  C 65.77 168.19 66.07 168.17 66.39 168.46
  C 68.05 169.96 68.51 171.50 67.78 173.09
  C 67.07 174.61 65.69 175.33 63.62 175.26
  C 63.24 175.24 62.88 175.31 62.53 175.48
  C 61.64 175.90 60.71 176.24 59.75 176.49
  C 58.39 176.85 57.09 175.75 57.23 174.35
  C 57.32 173.48 57.48 172.58 57.72 171.65
  C 57.81 171.32 58.01 171.12 58.34 171.05
  L 61.21 170.36
  C 61.50 170.29 61.74 170.14 61.93 169.90
  Z"
/>
<path fill="#ffffff" d="
  M 42.61 186.81
  C 42.50 186.81 42.40 186.79 42.29 186.74
  C 42.13 186.67 42.05 186.54 42.04 186.36
  C 42.03 185.65 41.88 185.00 41.59 184.39
  C 41.06 183.27 42.00 181.99 43.27 182.13
  C 43.79 182.19 44.18 181.99 44.43 181.54
  C 44.67 181.11 44.55 180.95 44.06 181.06
  L 41.24 181.69
  C 40.62 181.83 40.03 181.36 40.02 180.72
  L 39.99 177.69
  C 39.98 177.03 40.31 176.67 40.96 176.60
  C 42.18 176.47 43.43 175.55 44.72 175.21
  C 46.23 174.81 47.78 174.47 49.35 174.18
  C 49.77 174.11 49.98 174.28 49.98 174.71
  C 49.98 175.72 49.99 176.71 50.00 177.66
  C 50.01 179.13 49.42 179.88 48.23 179.93
  C 47.73 179.94 47.63 180.15 47.92 180.55
  L 48.69 181.60
  C 48.90 181.89 48.94 182.21 48.81 182.55
  L 47.70 185.35
  C 47.57 185.67 47.56 185.99 47.65 186.32
  C 47.88 187.11 48.00 188.17 47.99 189.50
  C 47.87 217.36 48.18 245.36 48.93 273.50
  C 49.06 278.57 49.08 283.65 48.98 288.73
  C 48.97 289.02 48.77 289.27 48.49 289.33
  L 46.99 289.69
  C 46.18 289.88 46.19 290.02 47.01 290.11
  L 48.19 290.23
  C 48.53 290.27 48.81 290.49 48.93 290.80
  C 49.34 291.86 50.33 292.60 49.89 293.86
  C 49.68 294.48 49.23 294.84 48.56 294.93
  C 48.49 294.94 48.43 295.00 48.43 295.08
  C 48.43 295.15 48.49 295.21 48.56 295.22
  L 50.53 295.46
  C 50.91 295.51 51.14 295.72 51.21 296.10
  C 51.46 297.37 51.55 298.74 51.48 300.21
  C 51.37 302.33 49.68 302.01 48.19 302.14
  C 45.21 302.41 42.27 302.36 39.38 301.99
  C 38.97 301.94 38.76 301.70 38.76 301.29
  L 38.72 296.97
  C 38.71 296.50 38.94 296.21 39.39 296.09
  C 41.18 295.62 42.91 295.42 44.57 295.50
  C 45.27 295.53 45.29 295.44 44.63 295.22
  C 43.60 294.87 42.56 294.78 41.52 294.95
  C 40.42 295.13 39.55 294.04 39.95 293.00
  C 40.52 291.53 41.47 290.58 42.79 290.16
  C 43.39 289.97 43.38 289.85 42.75 289.79
  L 42.25 289.74
  C 41.51 289.67 40.95 289.04 40.96 288.30
  C 41.09 273.09 41.19 258.22 41.26 243.68
  C 41.29 238.30 42.02 233.03 42.01 227.72
  C 41.99 214.73 41.99 201.73 42.01 188.74
  C 42.02 188.39 42.14 188.09 42.37 187.83
  C 42.52 187.67 42.67 187.52 42.84 187.38
  C 43.33 186.97 43.25 186.78 42.61 186.81
  Z"
/>
<path fill="#ffffff" d="
  M 60.00 289.76
  C 59.15 289.73 58.68 289.30 58.59 288.46
  C 58.05 283.47 58.49 278.11 58.55 272.84
  C 58.68 262.31 58.78 251.69 58.87 241.00
  C 59.01 223.23 59.05 204.30 58.99 184.21
  C 58.98 183.12 59.84 182.22 60.93 182.18
  C 61.97 182.14 62.89 181.87 63.70 181.37
  C 64.19 181.08 64.15 180.96 63.58 181.02
  C 62.89 181.09 62.17 181.32 61.42 181.69
  C 60.07 182.36 59.27 181.95 59.02 180.46
  L 58.87 179.52
  C 58.68 178.36 59.12 177.54 60.19 177.06
  C 61.94 176.27 63.65 175.85 65.33 175.78
  C 65.63 175.76 65.90 175.97 65.96 176.26
  C 66.35 178.01 65.96 179.44 64.79 180.56
  C 64.52 180.81 64.51 181.08 64.76 181.36
  L 65.51 182.22
  C 65.72 182.47 65.83 182.75 65.83 183.08
  C 65.86 217.76 66.11 252.20 66.58 286.40
  C 66.59 287.42 66.39 287.79 65.96 288.61
  C 65.77 288.98 65.80 289.31 66.07 289.62
  L 67.56 291.35
  C 68.37 292.30 67.93 293.78 66.72 294.12
  C 64.30 294.81 61.60 294.97 58.62 294.60
  C 58.21 294.55 58.00 294.31 58.00 293.90
  L 58.01 291.08
  C 58.01 290.63 58.23 290.35 58.67 290.26
  L 59.99 289.99
  C 60.69 289.85 60.69 289.77 60.00 289.76
  Z"
/>
<path fill="#ffffff" d="
  M 77.58 241.51
  C 78.01 224.69 78.14 204.17 77.95 179.95
  C 77.94 178.45 78.63 177.44 80.04 176.93
  L 82.70 175.95
  C 84.25 175.38 85.02 175.92 85.00 177.58
  C 84.91 185.10 85.00 194.99 85.28 207.25
  C 85.33 209.31 85.38 211.39 85.42 213.50
  C 85.89 237.55 86.08 261.77 85.99 286.14
  C 85.98 287.55 85.27 288.26 83.86 288.26
  L 78.97 288.26
  C 77.69 288.26 77.04 287.62 77.02 286.34
  C 76.88 276.49 77.07 261.54 77.58 241.51
  Z"
/>
<path fill="#ffffff" d="
  M 268.74 286.46
  C 269.08 285.35 269.54 284.28 270.13 283.27
  C 270.30 282.96 270.56 282.77 270.90 282.70
  C 274.48 281.93 278.33 282.43 281.99 282.08
  C 284.18 281.87 286.37 281.89 288.54 282.13
  C 289.08 282.19 289.54 282.54 289.76 283.04
  L 291.60 287.39
  C 291.75 287.76 291.63 287.95 291.24 287.96
  L 269.39 288.83
  C 268.98 288.85 268.60 288.61 268.44 288.24
  C 268.19 287.66 268.20 287.23 268.47 286.94
  C 268.59 286.81 268.68 286.65 268.74 286.46
  Z"
/>
<path fill="#ffffff" d="
  M 234.11 283.83
  L 248.93 282.93
  C 249.48 282.90 249.98 283.22 250.19 283.72
  L 251.81 287.58
  C 252.16 288.41 251.56 289.34 250.65 289.35
  L 232.97 289.65
  C 232.06 289.66 231.43 288.76 231.75 287.91
  L 232.99 284.65
  C 233.17 284.18 233.60 283.86 234.11 283.83
  Z"
/>
<path fill="#ffffff" d="
  M 338.04 285.23
  C 338.77 286.52 339.29 287.10 339.59 286.97
  C 339.80 286.88 339.99 286.92 340.16 287.09
  L 341.51 288.47
  C 341.69 288.65 341.65 288.74 341.39 288.73
  C 339.68 288.68 338.53 288.63 337.94 288.59
  C 329.75 288.05 322.05 287.83 314.84 287.92
  C 313.71 287.94 313.26 287.40 313.50 286.29
  L 313.61 285.77
  C 313.90 284.44 314.72 283.84 316.07 283.96
  C 321.59 284.45 326.57 284.58 331.00 284.36
  C 332.99 284.26 334.85 284.83 336.79 284.60
  C 337.30 284.54 337.79 284.79 338.04 285.23
  Z"
/>
<path fill="#ffffff" d="
  M 215.45 289.97
  C 209.19 290.59 204.07 290.82 200.08 290.67
  C 198.65 290.62 197.94 288.92 198.90 287.85
  C 199.48 287.21 199.91 286.50 200.20 285.72
  C 200.32 285.38 200.56 285.21 200.92 285.20
  C 203.32 285.12 205.49 284.24 207.89 284.45
  C 209.72 284.62 211.60 284.64 213.53 284.53
  C 214.54 284.47 215.28 284.89 215.74 285.80
  C 216.10 286.51 216.42 287.19 216.70 287.84
  C 217.25 289.12 216.84 289.83 215.45 289.97
  Z"
/>
<path fill="#ffffff" d="
  M 185.37 289.02
  C 185.53 289.04 185.66 289.11 185.76 289.23
  C 185.91 289.40 185.90 289.57 185.74 289.73
  L 184.88 290.62
  C 184.65 290.85 184.38 290.97 184.06 290.98
  L 170.48 291.37
  C 168.82 291.42 168.35 290.70 169.08 289.21
  L 169.84 287.66
  C 170.44 286.44 171.66 285.66 173.01 285.63
  L 177.58 285.53
  C 178.05 285.52 178.52 285.53 178.99 285.57
  C 180.48 285.68 181.93 285.83 183.34 286.04
  C 183.68 286.09 183.97 286.24 184.21 286.49
  C 184.83 287.12 185.11 287.84 185.04 288.63
  C 185.02 288.83 185.17 289.00 185.37 289.02
  Z"
/>
<path fill="#ffffff" d="
  M 391.01 289.27
  C 390.54 289.66 390.03 289.86 389.50 289.88
  C 381.89 290.17 374.02 289.94 365.89 289.18
  C 365.27 289.12 365.21 288.90 365.70 288.52
  C 367.09 287.45 368.63 286.10 370.49 286.10
  C 376.61 286.11 382.78 286.13 388.99 286.16
  C 389.90 286.16 390.43 286.63 390.58 287.56
  C 390.63 287.87 390.77 288.11 391.02 288.30
  L 391.92 288.96
  C 392.21 289.17 392.18 289.31 391.82 289.36
  C 391.67 289.38 391.54 289.35 391.43 289.26
  C 391.29 289.15 391.15 289.16 391.01 289.27
  Z"
/>
<path fill="#ffffff" d="
  M 146.34 292.12
  C 144.83 292.03 143.70 292.64 142.39 291.42
  C 142.13 291.18 142.12 290.77 142.37 290.52
  C 142.80 290.09 143.04 289.56 143.08 288.93
  C 143.14 288.06 143.76 287.34 144.60 287.16
  C 148.17 286.37 151.72 286.26 155.25 286.82
  C 156.17 286.97 156.71 287.50 156.88 288.42
  L 157.27 290.48
  C 157.32 290.78 157.26 291.05 157.07 291.30
  C 156.66 291.82 156.14 292.03 155.50 291.92
  C 154.88 291.82 154.25 291.81 153.62 291.89
  C 151.22 292.20 148.79 292.27 146.34 292.12
  Z"
/>
<path fill="#ffffff" d="
  M 119.14 293.03
  C 118.52 293.05 118.01 292.56 118.00 291.94
  L 118.00 291.84
  C 117.94 289.51 119.56 287.58 121.61 287.53
  L 128.07 287.39
  C 130.12 287.34 131.82 289.19 131.87 291.52
  L 131.87 291.62
  C 131.89 292.24 131.40 292.75 130.78 292.77
  L 119.14 293.03
  Z"
/>
<path fill="#ffffff" d="
  M 438.83 290.45
  C 438.90 290.65 439.01 290.81 439.17 290.92
  C 439.42 291.09 439.40 291.24 439.12 291.36
  C 437.27 292.16 435.76 291.37 433.88 291.39
  C 428.82 291.46 423.42 291.22 417.69 290.65
  C 417.14 290.60 416.68 290.21 416.54 289.68
  C 416.37 289.07 416.03 288.84 415.51 289.00
  C 415.02 289.15 414.93 289.02 415.24 288.61
  C 415.43 288.35 415.66 288.11 415.91 287.89
  C 416.14 287.68 416.42 287.59 416.73 287.60
  C 423.48 288.01 430.41 288.15 437.53 288.03
  C 438.72 288.01 439.50 288.97 439.87 289.98
  C 440.02 290.41 439.89 290.53 439.48 290.33
  C 439.37 290.28 439.26 290.22 439.15 290.17
  C 438.82 290.00 438.71 290.10 438.83 290.45
  Z"
/>
<path fill="#ffffff" d="
  M 97.27 293.39
  C 96.67 293.41 96.17 292.93 96.15 292.33
  L 96.15 292.23
  C 96.09 290.11 97.57 288.34 99.45 288.29
  L 105.10 288.15
  C 106.98 288.10 108.55 289.78 108.60 291.91
  L 108.61 292.01
  C 108.62 292.61 108.15 293.11 107.54 293.12
  L 97.27 293.39
  Z"
/>
<path fill="#ffffff" d="
  M 87.13 292.63
  C 87.15 293.21 86.69 293.70 86.10 293.72
  L 78.00 293.99
  C 76.93 294.02 76.04 293.10 76.00 291.91
  L 75.99 291.55
  C 75.95 290.37 76.78 289.39 77.85 289.35
  L 85.95 289.08
  C 86.54 289.06 87.03 289.52 87.05 290.11
  L 87.13 292.63
  Z"
/>
<path fill="#ffffff" d="
  M 466.09 290.03
  C 466.17 289.62 466.51 289.31 466.93 289.27
  C 469.34 289.10 471.65 289.19 473.88 289.54
  C 477.61 290.11 481.84 290.24 486.59 289.93
  C 487.24 289.88 487.75 290.12 488.13 290.65
  L 489.44 292.45
  C 489.78 292.92 489.66 293.14 489.08 293.13
  L 466.21 292.69
  C 465.89 292.68 465.65 292.39 465.71 292.08
  C 465.74 291.92 465.86 291.24 466.09 290.03
  Z"
/>
<path fill="#ffffff" d="
  M 292.01 291.40
  C 291.20 293.51 290.74 295.96 290.63 298.74
  C 290.61 299.11 290.32 299.40 289.95 299.41
  L 267.06 299.77
  C 265.57 299.79 264.84 299.06 264.87 297.57
  L 264.98 291.94
  C 264.99 291.06 265.44 290.60 266.33 290.56
  C 268.88 290.45 271.32 290.09 273.87 290.16
  C 279.79 290.31 285.76 290.29 291.77 290.11
  C 291.99 290.10 292.19 290.23 292.27 290.43
  C 292.40 290.74 292.37 290.97 292.20 291.12
  C 292.11 291.20 292.05 291.29 292.01 291.40
  Z"
/>
<path fill="#ffffff" d="
  M 251.18 290.93
  C 252.25 290.92 253.33 290.94 254.44 290.99
  C 254.83 291.01 255.02 291.21 255.02 291.60
  L 255.10 299.14
  C 255.11 299.63 254.86 299.88 254.36 299.89
  L 229.83 300.03
  C 229.35 300.03 229.05 299.80 228.92 299.34
  C 228.33 297.26 228.35 294.76 228.97 291.84
  C 229.06 291.40 229.33 291.22 229.78 291.30
  C 231.12 291.53 232.33 290.97 233.76 291.01
  C 237.94 291.14 242.09 291.00 246.22 290.61
  C 247.92 290.45 249.49 290.95 251.18 290.93
  Z"
/>
<path fill="#ffffff" d="
  M 513.89 293.10
  L 513.91 291.92
  C 513.92 291.35 514.39 290.91 514.96 290.93
  L 531.38 291.65
  C 531.63 291.66 531.88 291.63 532.12 291.55
  C 532.49 291.42 532.84 291.50 533.17 291.77
  C 533.91 292.40 534.60 293.04 535.23 293.71
  C 535.58 294.08 535.51 294.29 535.00 294.36
  C 530.36 294.93 526.36 295.05 523.01 294.72
  C 518.72 294.29 515.97 294.05 514.74 294.00
  C 514.17 293.98 513.88 293.68 513.89 293.10
  Z"
/>
<rect fill="#ffffff" x="-11.97" y="-4.31" transform="translate(207.97,296.19) rotate(-0.7)" width="23.94" height="8.62" rx="1.60"/>
<path fill="#ffffff" d="
  M 330.63 292.71
  L 345.31 293.33
  C 346.10 293.36 346.47 293.77 346.42 294.56
  L 346.22 298.15
  C 346.17 298.95 345.54 299.58 344.74 299.63
  C 338.75 299.97 334.26 300.01 331.25 299.74
  C 323.18 299.03 314.98 298.74 306.63 298.89
  C 305.99 298.90 305.46 298.41 305.43 297.78
  L 305.19 293.28
  C 305.14 292.49 305.51 292.10 306.30 292.09
  C 314.27 292.04 321.87 292.07 329.08 292.19
  C 329.49 292.20 329.88 292.33 330.25 292.58
  C 330.36 292.66 330.49 292.70 330.63 292.71
  Z"
/>
<rect fill="#ffffff" x="-10.77" y="-4.07" transform="translate(177.51,296.60) rotate(-0.8)" width="21.54" height="8.14" rx="1.37"/>
<rect fill="#ffffff" x="-9.89" y="-3.91" transform="translate(149.94,297.06) rotate(-1.0)" width="19.78" height="7.82" rx="2.03"/>
<path fill="#ffffff" d="
  M 561.29 293.73
  L 560.97 293.57
  C 560.62 293.38 560.64 293.29 561.04 293.29
  L 577.08 293.40
  C 577.25 293.41 577.38 293.48 577.49 293.61
  L 577.71 293.89
  C 577.94 294.18 577.88 294.40 577.55 294.55
  L 577.04 294.78
  C 576.80 294.89 576.80 295.00 577.03 295.13
  C 577.77 295.52 578.52 295.71 579.28 295.68
  C 579.54 295.67 579.67 295.80 579.67 296.05
  L 579.68 296.39
  C 579.69 296.58 579.59 296.69 579.40 296.71
  C 578.95 296.76 578.54 296.67 578.15 296.42
  C 577.86 296.24 577.54 296.14 577.19 296.13
  L 557.98 295.70
  C 557.27 295.68 557.24 295.53 557.89 295.24
  C 558.94 294.77 560.04 294.43 561.21 294.23
  C 561.73 294.14 561.76 293.98 561.29 293.73
  Z"
/>
<rect fill="#ffffff" x="-8.94" y="-3.80" transform="translate(125.06,297.48) rotate(-1.3)" width="17.88" height="7.60" rx="1.93"/>
<path fill="#ffffff" d="
  M 396.05 300.47
  C 395.32 300.76 394.56 300.90 393.78 300.89
  C 385.99 300.74 378.34 300.97 370.55 300.47
  C 367.26 300.26 363.92 300.03 360.53 299.78
  C 359.24 299.69 358.55 299.01 358.44 297.72
  C 358.37 296.87 358.38 296.01 358.47 295.15
  C 358.59 293.96 359.24 293.34 360.43 293.28
  C 364.56 293.05 368.32 294.09 372.29 294.13
  C 379.74 294.19 387.28 294.25 394.91 294.32
  C 396.31 294.33 397.41 295.49 397.36 296.89
  L 397.23 300.07
  C 397.22 300.34 397.08 300.47 396.81 300.47
  C 396.73 300.47 396.65 300.46 396.57 300.44
  C 396.39 300.39 396.22 300.40 396.05 300.47
  Z"
/>
<path fill="#ffffff" d="
  M 110.52 299.65
  C 110.53 300.52 109.84 301.24 108.97 301.26
  L 96.79 301.50
  C 95.28 301.52 94.04 301.14 94.03 300.63
  L 93.93 295.37
  C 93.92 294.86 95.14 294.43 96.65 294.40
  L 108.83 294.16
  C 109.70 294.15 110.42 294.84 110.44 295.71
  L 110.52 299.65
  Z"
/>
<path fill="#ffffff" d="
  M 617.19 296.07
  C 617.73 296.32 617.73 297.10 617.19 297.35
  C 616.99 297.44 616.78 297.53 616.56 297.62
  C 616.35 297.71 616.14 297.75 615.91 297.75
  C 610.18 297.75 604.64 297.50 599.31 296.99
  C 598.35 296.90 598.12 296.44 598.62 295.62
  L 598.78 295.37
  C 599.27 294.56 599.99 294.17 600.93 294.19
  C 604.93 294.26 608.91 295.24 612.86 295.14
  C 614.32 295.10 615.76 295.41 617.19 296.07
  Z"
/>
<path fill="#ffffff" d="
  M 89.12 299.94
  C 89.13 300.79 88.45 301.49 87.60 301.51
  L 77.03 301.67
  C 75.38 301.70 74.03 301.03 74.02 300.19
  L 73.96 296.35
  C 73.95 295.50 75.28 294.80 76.93 294.77
  L 87.50 294.61
  C 88.35 294.59 89.05 295.27 89.06 296.12
  L 89.12 299.94
  Z"
/>
<rect fill="#ffffff" x="-6.75" y="-3.36" transform="translate(62.74,298.45) rotate(-0.1)" width="13.50" height="6.72" rx="1.19"/>
<path fill="#ffffff" d="
  M 443.81 302.43
  C 443.67 302.57 443.50 302.65 443.30 302.66
  C 443.10 302.67 442.91 302.64 442.72 302.55
  C 441.79 302.09 440.66 301.87 439.33 301.89
  C 430.20 302.00 420.61 301.94 410.57 301.70
  C 410.02 301.69 409.56 301.27 409.50 300.72
  L 408.98 296.00
  C 408.92 295.45 409.17 295.16 409.72 295.14
  C 416.91 294.85 423.85 295.01 430.56 295.60
  C 435.87 296.07 440.72 296.21 445.11 296.02
  C 445.46 296.01 445.63 296.17 445.62 296.52
  C 445.59 298.55 445.61 300.43 445.68 302.17
  C 445.71 302.79 445.49 302.88 445.04 302.45
  C 444.95 302.36 444.85 302.29 444.72 302.24
  C 444.37 302.09 444.07 302.16 443.81 302.43
  Z"
/>
<rect fill="#ffffff" x="-17.33" y="-3.02" transform="translate(476.79,300.10) rotate(1.8)" width="34.66" height="6.04" rx="0.78"/>
<path fill="#ffffff" d="
  M 530.06 298.69
  C 530.33 298.48 530.59 298.49 530.82 298.72
  C 531.09 298.98 531.41 299.10 531.78 299.08
  C 533.80 298.99 535.66 299.11 537.35 299.44
  C 539.61 299.88 540.49 301.42 540.00 304.05
  C 539.92 304.49 539.66 304.72 539.22 304.73
  C 532.71 304.90 526.55 304.76 520.75 304.33
  C 516.33 304.00 512.16 303.68 508.25 303.37
  C 507.86 303.34 507.68 303.12 507.71 302.73
  L 507.99 299.46
  C 508.02 299.08 508.23 298.86 508.60 298.79
  C 512.72 298.06 516.92 298.75 521.23 298.44
  C 523.84 298.25 526.33 298.65 528.89 299.01
  C 529.32 299.08 529.71 298.97 530.06 298.69
  Z"
/>
<path fill="#ffffff" d="
  M 582.64 302.22
  C 582.64 302.07 582.71 301.96 582.86 301.90
  C 583.00 301.85 583.08 301.90 583.09 302.05
  L 583.33 304.92
  C 583.36 305.20 583.23 305.38 582.96 305.46
  C 581.98 305.74 580.99 305.86 580.00 305.82
  C 571.91 305.48 563.77 305.14 555.56 304.79
  C 554.47 304.75 553.97 304.19 554.05 303.10
  L 554.21 301.03
  C 554.30 299.87 554.92 299.33 556.07 299.41
  C 558.74 299.59 561.21 300.05 563.90 300.05
  C 568.95 300.05 574.04 300.06 579.19 300.09
  C 580.21 300.10 581.17 300.30 582.06 300.71
  C 582.28 300.81 582.29 301.11 582.08 301.23
  C 581.94 301.30 581.83 301.41 581.74 301.55
  C 581.61 301.78 581.62 302.00 581.77 302.22
  C 581.88 302.39 582.04 302.49 582.23 302.54
  C 582.44 302.60 582.64 302.44 582.64 302.22
  Z"
/>
<path fill="#ffffff" d="
  M 594.17 302.03
  C 594.20 301.34 594.78 300.81 595.46 300.83
  L 609.85 301.36
  C 616.35 301.60 621.60 302.53 621.56 303.43
  L 621.48 305.67
  C 621.45 306.58 616.15 307.12 609.65 306.88
  L 595.26 306.35
  C 594.57 306.33 594.04 305.75 594.06 305.07
  L 594.17 302.03
  Z"
/>
<path fill="#ffffff" d="
  M 289.78 304.35
  C 289.29 306.83 287.81 308.75 287.01 311.11
  C 286.61 312.28 285.50 313.07 284.26 313.07
  L 17.10 312.84
  C 17.02 312.84 16.98 312.80 16.97 312.73
  C 16.63 308.70 16.62 305.84 16.93 304.17
  C 16.94 304.13 16.96 304.11 17.00 304.11
  C 45.84 304.07 74.49 303.95 102.94 303.74
  C 104.35 303.73 105.73 303.75 107.08 303.79
  C 109.48 303.86 112.95 303.83 117.50 303.71
  C 128.16 303.43 139.42 303.28 151.27 303.26
  C 193.41 303.18 235.58 303.08 277.79 302.97
  C 281.50 302.96 285.10 302.57 288.78 302.98
  C 289.45 303.06 289.91 303.69 289.78 304.35
  Z"
/>
<path fill="#ffffff" d="
  M 630.70 317.83
  C 630.73 317.96 630.62 318.09 630.48 318.09
  C 615.41 317.97 600.41 318.07 585.17 317.50
  C 570.57 316.96 556.37 316.74 542.56 316.84
  C 532.25 316.92 521.96 315.88 511.75 315.97
  C 493.60 316.13 480.15 315.94 471.40 315.40
  C 465.63 315.05 460.33 314.86 455.50 314.85
  C 444.06 314.82 433.01 314.68 422.36 314.44
  C 419.34 314.37 416.47 314.31 413.74 314.26
  C 398.07 313.99 382.74 313.77 367.75 313.60
  C 362.72 313.54 357.26 313.05 352.41 313.05
  C 333.18 313.03 313.16 312.66 292.34 311.94
  C 292.16 311.93 292.02 311.78 292.03 311.60
  L 292.48 304.44
  C 292.49 304.25 292.59 304.16 292.78 304.15
  C 297.05 304.01 302.53 304.10 309.23 304.41
  C 320.43 304.93 334.77 305.19 352.25 305.19
  C 358.54 305.19 365.20 305.33 372.24 305.61
  C 384.03 306.09 395.83 306.41 407.63 306.58
  C 410.54 306.62 413.46 306.59 416.38 306.49
  C 417.63 306.45 418.12 307.12 419.28 307.13
  C 429.71 307.21 440.17 307.27 450.67 307.32
  C 453.14 307.33 455.64 307.87 458.13 307.90
  C 471.56 308.09 484.54 308.23 498.24 308.74
  C 506.03 309.02 513.98 309.19 522.07 309.26
  C 527.65 309.31 533.76 309.51 540.40 309.88
  C 552.75 310.57 564.27 310.37 576.12 310.36
  C 577.60 310.36 578.44 310.88 579.83 310.90
  C 590.40 311.03 601.42 311.19 612.89 311.38
  C 617.22 311.45 622.69 311.82 629.31 312.48
  C 629.56 312.51 629.70 312.64 629.75 312.89
  L 630.70 317.83
  Z"
/>
<path fill="#ffffff" d="
  M 87.75 316.23
  C 109.82 316.38 132.09 316.59 154.58 316.84
  C 158.69 316.88 162.80 316.85 166.91 316.76
  C 172.40 316.63 177.87 316.95 183.35 316.97
  C 211.64 317.08 241.57 317.21 273.16 317.34
  C 273.54 317.34 273.81 317.51 273.98 317.84
  C 275.58 320.97 275.01 323.67 272.26 325.94
  C 271.73 326.37 271.36 326.93 271.13 327.62
  C 271.02 327.95 270.80 328.11 270.45 328.10
  L 11.71 324.35
  C 11.19 324.34 10.95 324.07 10.98 323.56
  C 11.04 322.57 10.91 321.57 10.60 320.56
  C 10.49 320.18 10.53 319.78 10.73 319.45
  C 11.05 318.92 11.07 318.35 10.80 317.76
  C 10.48 317.06 10.90 316.24 11.66 316.09
  C 13.45 315.75 15.73 315.59 18.50 315.62
  C 41.58 315.87 64.66 316.07 87.75 316.23
  Z"
/>
<path fill="#ffffff" d="
  M 277.11 324.41
  C 277.14 323.15 277.13 321.90 277.08 320.66
  C 277.07 320.29 277.19 319.96 277.45 319.69
  C 278.36 318.75 279.29 318.47 280.25 318.85
  C 280.54 318.96 280.81 318.94 281.07 318.78
  C 281.35 318.61 281.66 318.57 282.00 318.68
  C 282.31 318.78 282.63 318.83 282.96 318.84
  C 290.73 318.98 298.32 319.20 306.35 319.14
  C 319.12 319.03 330.84 319.18 341.51 319.59
  C 360.20 320.30 381.09 319.88 396.81 320.21
  C 404.57 320.37 412.50 320.98 420.43 321.00
  C 434.19 321.05 448.21 321.15 462.50 321.28
  C 469.60 321.35 477.66 321.91 485.50 321.96
  C 502.83 322.07 520.20 321.83 537.50 322.54
  C 551.85 323.12 566.22 323.29 580.61 323.05
  C 590.24 322.88 600.28 323.53 610.13 323.78
  C 617.45 323.97 627.22 324.10 639.43 324.17
  C 639.62 324.18 639.70 324.27 639.69 324.46
  L 639.36 329.97
  C 639.35 330.13 639.26 330.22 639.10 330.25
  C 636.73 330.64 634.36 330.77 632.00 330.65
  C 627.37 330.41 622.62 330.27 617.75 330.22
  C 591.48 329.94 565.40 329.78 539.51 329.73
  C 529.12 329.71 517.49 329.17 506.50 329.08
  C 472.24 328.81 438.15 329.00 403.98 328.12
  C 372.92 327.32 341.99 328.28 311.22 327.42
  C 299.41 327.09 288.27 326.93 277.82 326.92
  C 276.97 326.92 276.61 326.50 276.74 325.66
  C 276.77 325.45 276.84 325.24 276.95 325.05
  C 277.06 324.85 277.11 324.64 277.11 324.41
  Z"
/>
<path fill="#ffffff" d="
  M 6.27 327.50
  C 16.04 327.83 25.59 328.04 34.94 328.14
  C 39.88 328.19 46.56 328.38 54.98 328.72
  C 69.04 329.29 83.30 328.92 98.87 329.52
  C 105.77 329.79 112.44 329.94 118.88 329.98
  C 132.45 330.06 146.10 330.92 159.51 331.01
  C 169.38 331.08 179.13 331.29 188.74 331.64
  C 194.11 331.83 200.77 331.96 208.74 332.02
  C 225.12 332.15 240.50 333.07 257.31 333.00
  C 257.77 332.99 258.00 333.22 258.00 333.69
  L 257.99 343.27
  C 257.99 343.60 257.82 343.77 257.49 343.76
  L 6.46 335.99
  C 4.82 335.94 4.00 335.09 4.00 333.46
  L 4.00 329.70
  C 4.00 328.18 4.76 327.45 6.27 327.50
  Z"
/>
<path fill="#ffffff" d="
  M 260.26 340.48
  C 260.13 339.05 260.11 337.45 260.18 335.69
  C 260.22 334.68 260.75 334.17 261.76 334.17
  C 307.60 334.10 352.09 334.35 395.23 334.94
  C 401.61 335.03 408.29 335.07 415.26 335.08
  C 441.35 335.10 481.52 335.25 535.75 335.52
  C 536.60 335.53 537.44 335.54 538.26 335.55
  C 574.98 336.12 611.53 336.31 647.92 336.12
  C 648.69 336.12 649.35 336.67 649.48 337.43
  C 649.71 338.77 649.76 340.15 649.61 341.57
  C 649.53 342.34 649.10 342.73 648.32 342.73
  L 262.76 342.77
  C 261.23 342.77 260.40 342.01 260.26 340.48
  Z"
/>
</svg>
